<svg width="27" height="21" viewBox="0 0 27 21" fill="none" xmlns="http://www.w3.org/2000/svg">
<path fill-rule="evenodd" clip-rule="evenodd" d="M25.9307 11.3191C25.9307 11.2736 25.9307 11.2736 25.8855 11.2281L22.9446 4.03782C22.9446 3.99232 22.9446 3.99232 22.8994 3.94681C22.4243 3.0594 21.9266 2.24025 21.1123 1.67139C20.2752 1.10254 19.3251 0.875 18.2619 0.875C17.6059 0.875 17.0856 1.39835 17.0856 2.05822C17.0856 2.71809 17.6059 3.24143 18.2619 3.24143C18.9632 3.24143 19.4382 3.37795 19.7549 3.62825C20.0717 3.85579 20.411 4.24261 20.7729 4.94799L22.1302 8.20183C21.6552 8.11082 21.2027 8.0198 20.6824 8.0198C18.4429 8.0198 16.52 9.20301 15.502 11.0006C14.8912 10.5683 14.19 10.4317 13.5339 10.4317C12.7874 10.4317 12.1314 10.7048 11.5658 11.0461C10.5478 9.20301 8.62499 8.0198 6.38542 8.0198C5.86512 8.0198 5.41268 8.06531 4.93762 8.20183L6.29493 4.94799C6.67951 4.24261 6.95097 3.85579 7.26767 3.62825C7.58438 3.40071 8.0142 3.24143 8.76072 3.24143C9.41675 3.24143 9.93705 2.71809 9.93705 2.05822C9.93705 1.39835 9.41675 0.875 8.76072 0.875C7.62962 0.875 6.70213 1.10254 5.86512 1.67139C5.07335 2.24025 4.50781 3.03664 4.07799 3.94681C4.07799 3.99232 4.03275 3.99232 4.03275 4.03782L1.0919 11.2281C1.0919 11.2736 1.0919 11.2736 1.04666 11.3191C0.616844 12.1383 0.390625 13.0712 0.390625 14.1179C0.390625 17.4855 3.01476 20.125 6.34018 20.125C9.66559 20.125 12.2897 17.4855 12.2897 14.1179C12.2897 13.8449 12.3802 13.5491 12.5612 13.3215C12.81 13.0712 13.1267 12.9347 13.4434 12.9347C13.7149 12.9347 14.009 13.0257 14.2352 13.2077C14.5067 13.4808 14.6198 13.8676 14.6198 14.0952C14.6198 17.4628 17.2439 20.1022 20.5693 20.1022C23.9852 20.1022 26.6094 17.4628 26.6094 14.0952C26.5868 13.0712 26.3379 12.1383 25.9307 11.3191ZM6.34018 17.7131C4.32683 17.7131 2.78854 16.143 2.78854 14.1179C2.78854 12.0928 4.32683 10.5228 6.34018 10.5228C8.35352 10.5228 9.89181 12.0928 9.89181 14.1179C9.93706 16.143 8.3309 17.7131 6.34018 17.7131ZM20.6372 17.7131C18.6239 17.7131 17.0856 16.143 17.0856 14.1179V14.0724C17.0856 12.0473 18.6239 10.4772 20.6372 10.4772C22.6505 10.4772 24.1888 12.0473 24.1888 14.0724C24.1888 16.143 22.6505 17.7131 20.6372 17.7131Z" fill="white"/>
</svg>
