<svg width="27" height="24" viewBox="0 0 27 24" fill="none" xmlns="http://www.w3.org/2000/svg">
<path d="M16.8326 15.6381H9.66521C8.25345 15.6381 7.16748 16.8326 7.16748 18.1358V19.439C7.16748 22.3711 9.33942 24 13.3575 24C15.7467 24 17.3756 23.4571 18.4616 22.3711C19.2218 21.6109 19.5476 20.6335 19.439 19.439V18.1358C19.439 16.8326 18.2444 15.6381 16.8326 15.6381ZM17.1584 19.439C17.267 20.9593 16.181 21.7195 13.3575 21.7195C10.534 21.7195 9.33942 20.9593 9.33942 19.439V18.1358C9.33942 18.0272 9.33942 17.9186 9.44802 17.9186C9.55662 17.9186 9.55662 17.81 9.66521 17.81H16.8326C16.9412 17.81 17.0498 17.81 17.0498 17.9186C17.1584 18.0272 17.1584 18.0272 17.1584 18.1358V19.439Z" fill="white"/>
<path d="M7.7104 14.8778C7.27601 14.9864 6.73302 14.9864 6.19004 14.9864C2.93212 14.9864 2.49773 13.9004 2.49773 12.923V11.6199V11.5113H8.36198V11.1855C8.25338 10.5339 8.36198 9.99092 8.47058 9.33934L8.57918 9.01355H2.49773C1.19457 9.12215 0 10.3167 0 11.6199V12.923C0 15.8552 2.17194 17.4841 6.29864 17.4841H6.51583V17.2669C6.73302 16.5068 7.27601 15.8552 7.92759 15.4208L9.01357 14.7692L7.7104 14.8778Z" fill="white"/>
<path d="M23.9999 9.12219H17.9185L18.0271 9.44798C18.1357 10.0996 18.2443 10.6426 18.1357 11.2941V11.6199H23.9999L24.1085 11.7285V13.0317C24.1085 13.5747 23.9999 14.0091 23.7827 14.2263C23.2397 14.7692 22.2624 14.9864 20.6334 14.9864C19.9818 14.9864 19.3302 14.9864 18.8958 14.8778L17.3755 14.5521L18.6787 15.3122C19.4388 15.7466 19.8732 16.3982 20.199 17.267L20.3076 17.4842H20.742C23.1311 17.4842 24.7601 16.9412 25.8461 15.8552C26.6062 15.095 26.932 14.1177 26.8234 12.9231V11.6199C26.6062 10.3168 25.4117 9.12219 23.9999 9.12219Z" fill="white"/>
<path d="M16.2897 7.71044C15.8553 7.27605 15.421 7.05886 14.9866 6.84166C14.4436 6.62447 13.9006 6.51587 13.3576 6.51587C12.2716 6.51587 11.1857 6.95026 10.4255 7.71044C9.5567 8.57922 9.12231 9.55659 9.12231 10.6426C9.12231 11.7285 9.5567 12.8145 10.3169 13.5747C11.0771 14.3349 12.163 14.7693 13.249 14.7693C13.792 14.7693 14.335 14.6607 14.878 14.4435C15.4209 14.2263 15.8553 13.9005 16.1811 13.5747C16.6155 13.1403 16.8327 12.7059 17.0499 12.2715C17.2671 11.7285 17.3757 11.1855 17.3757 10.6426C17.3757 10.0996 17.2671 9.55659 17.0499 9.0136C16.8327 8.47062 16.6155 8.14483 16.2897 7.71044ZM14.6608 12.0543C14.335 12.3801 13.792 12.5973 13.249 12.5973C13.0318 12.5973 12.706 12.5973 12.4888 12.4887C12.2716 12.3801 12.0544 12.2715 11.8372 12.0543C11.62 11.8371 11.5115 11.6199 11.4029 11.4027C11.2943 11.1855 11.2943 10.8598 11.2943 10.6426C11.2943 10.4254 11.2943 10.0996 11.4029 9.88238C11.5115 9.66519 11.62 9.44799 11.8372 9.2308C12.0544 9.0136 12.2716 8.90501 12.4888 8.79641C12.8146 8.79641 13.0318 8.68781 13.249 8.68781C13.792 8.68781 14.2264 8.90501 14.6608 9.2308C15.0952 9.66519 15.2038 10.2082 15.2038 10.6426C15.2038 11.077 15.0952 11.7285 14.6608 12.0543Z" fill="white"/>
<path d="M9.12225 1.19457C8.25347 0.434389 7.27609 0 6.08153 0C4.99555 0 3.90958 0.434389 3.1494 1.19457C2.38922 2.06335 1.95483 3.04072 1.95483 4.12669C1.95483 5.21266 2.38922 6.29864 3.1494 7.05882C3.90958 7.819 4.99555 8.25338 6.08153 8.25338C7.1675 8.25338 8.25347 7.819 9.01365 7.05882C9.77383 6.29864 10.2082 5.21266 10.2082 4.12669C10.2082 3.04072 9.88243 2.06335 9.12225 1.19457ZM7.49329 5.53846C7.1675 5.97284 6.62451 6.08144 6.08153 6.08144C5.53854 6.08144 5.10415 5.86425 4.66976 5.53846C4.34397 5.21266 4.12678 4.66968 4.12678 4.12669C4.12678 3.58371 4.34397 3.14932 4.77836 2.82353C5.10415 2.38914 5.64714 2.17194 6.08153 2.17194C6.62451 2.17194 7.0589 2.38914 7.49329 2.71493C7.81908 3.04072 8.03628 3.58371 8.03628 4.12669C8.03628 4.66968 7.92768 5.21266 7.49329 5.53846Z" fill="white"/>
<path d="M23.457 1.19457C22.5882 0.434389 21.6108 0 20.4162 0C19.3303 0 18.2443 0.434389 17.4841 1.19457C16.7239 2.06335 16.2896 3.04072 16.2896 4.12669C16.2896 5.21266 16.7239 6.29864 17.4841 7.05882C18.2443 7.819 19.3303 8.25338 20.4162 8.25338C21.5022 8.25338 22.5882 7.819 23.3484 7.05882C24.1085 6.29864 24.5429 5.21266 24.5429 4.12669C24.5429 3.04072 24.2171 2.06335 23.457 1.19457ZM21.828 5.53846C21.5022 5.86425 20.9592 6.08144 20.4162 6.08144C19.8733 6.08144 19.4389 5.86425 19.0045 5.53846C18.5701 5.21266 18.4615 4.66968 18.4615 4.12669C18.4615 3.58371 18.6787 3.14932 19.0045 2.71493C19.3303 2.28054 19.9819 2.17194 20.4162 2.17194C20.8506 2.17194 21.3936 2.38914 21.828 2.71493C22.1538 3.04072 22.371 3.58371 22.371 4.12669C22.371 4.66968 22.2624 5.21266 21.828 5.53846Z" fill="white"/>
</svg>
