<svg width="46" height="45" viewBox="0 0 46 45" fill="none" xmlns="http://www.w3.org/2000/svg">
<path d="M0 4.58047V34.7352C0 35.4986 0.950872 36.0712 1.5214 35.4987L10.6498 28.6279C11.6006 27.8645 12.7417 27.4828 13.8827 27.4828H31.7591C32.9002 27.4828 34.0412 26.9103 34.9921 26.1469C35.943 25.3834 36.3233 24.0475 36.3233 22.9024V4.58047C36.3233 3.43535 35.7528 2.29024 34.9921 1.33597C34.0412 0.381706 32.9002 0 31.7591 0H4.56419C3.42314 0 2.28209 0.572559 1.33122 1.33597C0.570523 2.29024 0 3.43535 0 4.58047ZM4.56419 25.5743V5.53474C4.56419 4.96218 4.94454 4.58047 5.51506 4.58047H30.9984C31.569 4.58047 31.9493 4.96218 31.9493 5.53474V21.9481C31.9493 22.5207 31.569 22.9024 30.9984 22.9024H12.1712C11.2203 22.9024 10.2694 23.2841 9.50873 23.8566L6.27576 26.3377C5.51506 26.9103 4.56419 26.3377 4.56419 25.5743Z" fill="#5B3D80"/>
<path d="M44.1204 44.8504C44.6909 45.2321 45.6418 44.8504 45.6418 44.087V16.0316C45.6418 14.8865 45.0713 13.7414 44.3106 12.7871C43.3597 11.8329 42.2187 11.4512 41.0776 11.4512V34.7352C41.0776 35.4986 40.1267 35.8804 39.5562 35.4986L36.1331 33.0176C35.3724 32.445 34.4215 32.0633 33.4706 32.0633H11.4104C11.4104 32.6359 11.6006 33.2084 11.7907 33.781C11.9809 34.3535 12.3613 34.9261 12.7416 35.3078C13.122 35.6895 13.6925 36.0712 14.263 36.2621C14.8335 36.4529 15.4041 36.6438 15.9746 36.6438H31.5689C32.7099 36.6438 33.851 37.0255 34.8019 37.7889L44.1204 44.8504Z" fill="#5B3D80"/>
</svg>
