<svg width="24" height="24" viewBox="0 0 24 24" fill="none" xmlns="http://www.w3.org/2000/svg">
<path d="M0 2.4V18.2C0 18.6 0.499999 18.9 0.799999 18.6L5.6 15C6.1 14.6 6.7 14.4 7.3 14.4H16.7C17.3 14.4 17.9 14.1 18.4 13.7C18.9 13.2 19.1 12.6 19.1 12V2.4C19.1 1.8 18.8 1.2 18.4 0.7C17.9 0.2 17.3 0 16.7 0H2.4C1.8 0 1.2 0.3 0.700001 0.7C0.200001 1.2 0 1.8 0 2.4ZM2.4 13.4V2.9C2.4 2.6 2.6 2.4 2.9 2.4H16.3C16.6 2.4 16.8 2.6 16.8 2.9V11.5C16.8 11.8 16.6 12 16.3 12H6.4C5.9 12 5.4 12.2 5 12.5L3.2 13.8C2.8 14 2.4 13.8 2.4 13.4Z" fill="white"/>
<path d="M23.2 23.4C23.5 23.6 24 23.4 24 23V8.4C24 7.8 23.7 7.2 23.3 6.7C22.8 6.2 22.2 6 21.6 6V18.2C21.6 18.6 21.1 18.8 20.8 18.6L19 17.3C18.6 17 18.1 16.8 17.6 16.8H6C6 17.1 6.1 17.4 6.2 17.7C6.3 18 6.5 18.3 6.7 18.5C6.9 18.7 7.2 18.9 7.5 19C7.8 19.1 8.1 19.2 8.4 19.2H16.6C17.2 19.2 17.8 19.4 18.3 19.8L23.2 23.4Z" fill="white"/>
</svg>
