<svg width="50" height="40" viewBox="0 0 50 40" fill="none" xmlns="http://www.w3.org/2000/svg">
<path d="M47.2522 40H2.52492C1.80351 40 1.26245 39.819 0.721397 39.276C0.180341 38.733 0 38.19 0 37.4661C0 36.7421 0.180341 36.1991 0.721397 35.6561C1.26245 35.1131 1.80351 34.9321 2.52492 34.9321H47.2522C47.9736 34.9321 48.5147 35.1131 49.0558 35.6561C49.5968 36.1991 49.7772 36.7421 49.7772 37.4661C49.7772 38.19 49.5968 38.733 49.0558 39.276C48.6951 39.638 47.9736 40 47.2522 40ZM7.57478 5.06787V24.9774H42.3827V5.06787H7.57478ZM7.57478 0H42.3827C43.6452 0 44.9077 0.542986 45.9898 1.44796C46.8915 2.35294 47.4326 3.61991 47.4326 5.06787V24.9774C47.4326 26.2443 46.8915 27.5113 45.9898 28.5973C45.088 29.5023 43.8256 30.0452 42.3827 30.0452H7.57478C6.31232 30.0452 5.04985 29.5023 3.96774 28.5973C3.06598 27.6923 2.52492 26.4253 2.52492 24.9774V5.06787C2.52492 3.8009 3.06598 2.53394 3.96774 1.44796C4.8695 0.542986 6.13196 0 7.57478 0Z" fill="#5B3D80"/>
</svg>
