<svg width="227" height="340" viewBox="0 0 227 340" fill="none" xmlns="http://www.w3.org/2000/svg">
<g clip-path="url(#clip0)">
<path d="M123.861 265L152.207 288.095L143.87 335.476L115.525 312.619L123.861 265Z" fill="#D5B3AA"/>
<path d="M115.525 312.619L143.87 335.476L99.5654 340L71.2202 316.905L115.525 312.619Z" fill="#A98C7A"/>
<path d="M79.5571 269.286L123.861 265L115.525 312.619L71.2202 316.905L79.5571 269.286Z" fill="#F3D7D6"/>
<path d="M202.704 232.381L189.604 243.095L193.653 265L206.515 254.286L202.704 232.381Z" fill="#D5B3AA"/>
<path d="M206.515 254.286L193.653 265L213.899 267.143L227 256.429L206.515 254.286Z" fill="#A98C7A"/>
<path d="M223.189 234.524L202.704 232.381L206.515 254.286L227 256.429L223.189 234.524Z" fill="#F3D7D6"/>
<path d="M0 35L5.0021 4.28573L5.47849 3.57144L0.47639 34.2857L0 35Z" fill="#808080"/>
<path d="M146.966 110.714L147.205 110.952L152.445 80C152.207 79.7619 151.73 79.7619 151.492 79.5238C151.492 79.5238 151.254 79.5238 151.254 79.2857C151.016 79.0476 150.777 78.8095 150.539 78.8095C150.301 78.5714 149.825 78.3333 149.586 78.0953C149.586 78.0953 149.586 78.0953 149.348 77.8572C149.11 77.6191 148.872 77.381 148.634 77.1429C148.396 76.9048 148.396 76.9048 148.396 76.6667L148.157 76.4286C147.919 76.1905 147.919 76.1905 147.919 75.9524C147.919 75.9524 147.919 75.7143 147.681 75.7143C147.443 75.4762 147.443 75.2381 147.205 75C147.205 75 147.205 75 147.205 74.7619C147.205 74.5238 146.966 74.2857 146.966 74.0476C146.728 73.5714 146.728 73.3334 146.49 72.8572V72.6191C146.49 72.381 146.252 71.9048 146.252 71.6667V71.4286C146.252 70.9524 146.014 70.7143 146.014 70.2381V70C146.014 69.7619 146.014 69.2857 145.775 69.0476V68.8095C145.775 68.0953 145.537 67.381 145.537 66.6667C145.537 65.9524 145.537 65.2381 145.299 64.5238C145.299 64.5238 145.299 64.5238 145.299 64.2857C145.299 64.0476 145.299 63.5714 145.061 63.3334V63.0953C145.061 62.6191 144.823 62.1429 144.823 61.9048V61.6667C144.823 61.4286 144.584 60.9524 144.584 60.7143V60.4762C144.346 60 144.346 59.7619 144.108 59.2857C144.108 59.0476 143.87 58.8095 143.632 58.3333V58.0953C143.632 57.8572 143.393 57.6191 143.393 57.381L143.155 57.1429C143.155 56.9048 142.917 56.9048 142.917 56.6667L142.679 56.4286C142.679 56.1905 142.441 56.1905 142.441 55.9524C142.202 55.7143 141.964 55.4762 141.726 55.2381C141.726 55.2381 141.726 55 141.488 55C141.25 54.7619 140.773 54.5238 140.535 54.2857C140.297 54.0476 140.059 53.8095 139.82 53.8095C139.82 53.8095 139.582 53.8095 139.582 53.5714C139.344 53.5714 139.106 53.3333 139.106 53.3333C138.868 53.3333 138.868 53.0953 138.63 53.0953C138.153 52.8572 137.915 52.6191 137.439 52.6191C136.962 52.381 136.724 52.381 136.248 52.1429C136.248 52.1429 136.248 52.1429 136.009 52.1429H135.771C135.533 52.1429 135.057 51.9048 134.818 51.9048H134.58H134.342C133.866 51.9048 133.627 51.6667 133.151 51.6667H132.913C132.675 51.6667 132.675 51.6667 132.436 51.6667C132.198 51.6667 131.96 51.6667 131.722 51.6667C131.484 51.6667 131.484 51.6667 131.245 51.6667C131.007 51.6667 131.007 51.6667 130.769 51.6667C130.769 51.6667 130.769 51.6667 130.531 51.6667C130.293 51.6667 130.054 51.6667 129.578 51.6667H129.34C128.864 51.6667 128.625 51.6667 128.149 51.9048H127.911C127.673 51.9048 127.196 52.1429 126.958 52.1429C126.72 52.1429 126.72 52.1429 126.482 52.1429C126.243 52.1429 126.005 52.381 125.767 52.381C125.529 52.381 125.529 52.381 125.291 52.6191C125.052 52.6191 124.814 52.8572 124.576 52.8572C124.338 52.8572 124.338 52.8572 124.1 53.0953C123.861 53.0953 123.623 53.3333 123.385 53.3333C123.147 53.3333 123.147 53.3333 122.909 53.5714C122.67 53.5714 122.432 53.8095 122.194 53.8095C121.956 53.8095 121.956 53.8095 121.718 54.0476C121.241 54.2857 121.003 54.2857 120.527 54.5238C120.05 54.7619 119.812 54.7619 119.336 55C119.336 55 119.098 55 119.098 55.2381C118.859 55.2381 118.621 55.4762 118.383 55.4762C118.145 55.4762 118.145 55.4762 117.907 55.7143C117.668 55.7143 117.43 55.9524 117.192 55.9524C116.954 55.9524 116.954 55.9524 116.716 56.1905C116.477 56.1905 116.239 56.4286 116.001 56.4286C115.763 56.4286 115.763 56.4286 115.525 56.6667C115.286 56.6667 115.048 56.9048 114.81 56.9048C114.572 56.9048 114.572 56.9048 114.334 56.9048C113.857 56.9048 113.619 57.1429 113.143 57.1429C112.666 57.1429 112.428 57.381 111.952 57.381C111.713 57.381 111.713 57.381 111.475 57.381C111.237 57.381 110.999 57.381 110.761 57.381C110.522 57.381 110.284 57.381 110.284 57.381C110.046 57.381 110.046 57.381 109.808 57.381C109.57 57.381 109.332 57.381 109.093 57.381C108.855 57.381 108.855 57.381 108.617 57.381H108.379C108.141 57.381 107.664 57.381 107.426 57.1429C107.188 57.1429 107.188 57.1429 106.95 57.1429C106.711 57.1429 106.473 56.9048 106.235 56.9048C105.997 56.9048 105.997 56.9048 105.759 56.9048C105.282 56.9048 105.044 56.6667 104.568 56.4286C104.568 56.4286 104.568 56.4286 104.329 56.4286C103.853 56.1905 103.615 56.1905 103.138 55.9524C102.9 55.7143 102.424 55.7143 102.186 55.4762C102.186 55.4762 101.947 55.4762 101.947 55.2381C101.709 55 101.471 54.7619 101.233 54.7619C100.995 54.5238 100.518 54.2857 100.28 54.0476C100.28 54.0476 100.28 54.0476 100.042 53.8095C99.8037 53.5714 99.5655 53.3333 99.3273 53.0953C99.0891 52.8572 99.0891 52.8572 99.0891 52.6191L98.8509 52.381C98.6127 52.1429 98.6127 52.1429 98.6127 51.9048C98.6127 51.9048 98.6127 51.6667 98.3745 51.6667C98.1363 51.4286 98.1363 51.1905 97.8981 50.9524C97.8981 50.9524 97.8981 50.9524 97.8981 50.7143C97.8981 50.4762 97.6599 50.2381 97.6599 50C97.4217 49.5238 97.4217 49.2857 97.1835 48.8095V48.5714C97.1835 48.3333 96.9454 47.8572 96.9454 47.6191V47.381C96.9454 46.9048 96.7072 46.6667 96.7072 46.1905V45.9524C96.7072 45.7143 96.7072 45.2381 96.469 45V44.7619C96.469 44.0476 96.2308 43.3333 96.2308 42.6191C96.2308 41.9048 96.2308 41.1905 95.9926 40.4762C95.9926 40.4762 95.9926 40.4762 95.9926 40.2381C95.9926 40 95.9926 39.5238 95.7544 39.2857V39.0476C95.7544 38.5714 95.5162 38.0953 95.5162 37.8572V37.6191C95.5162 37.381 95.278 36.9048 95.278 36.6667V36.4286C95.0398 35.9524 95.0398 35.7143 94.8016 35.2381C94.8016 35 94.5634 34.7619 94.3252 34.2857V34.0476C94.3252 33.8095 94.087 33.5714 94.087 33.3334L93.8488 33.0953C93.8488 32.8572 93.6106 32.8572 93.6106 32.6191L93.3724 32.381C93.3724 32.1429 93.1342 32.1429 93.1342 31.9048C92.896 31.6667 92.6578 31.4286 92.4196 31.1905C92.4196 31.1905 92.4196 31.1905 92.1815 30.9524C91.9433 30.7143 91.4669 30.4762 91.2287 30.2381C90.9905 30 90.7523 29.7619 90.5141 29.7619C90.5141 29.7619 90.2759 29.7619 90.2759 29.5238C90.0377 29.5238 89.7995 29.2857 89.7995 29.2857C89.5613 29.2857 89.5613 29.0476 89.3231 29.0476C88.8467 28.8095 88.6085 28.5714 88.1321 28.5714C87.6557 28.3334 87.4175 28.3334 86.9412 28.0953C86.9412 28.0953 86.9412 28.0953 86.703 28.0953H86.4648C86.2266 28.0953 85.7502 27.8572 85.512 27.8572H85.2738H85.0356C84.5592 27.8572 84.321 27.6191 83.8446 27.6191H83.6064C83.3682 27.6191 83.3682 27.6191 83.13 27.6191C82.8918 27.6191 82.6536 27.6191 82.4154 27.6191C82.1773 27.6191 82.1773 27.6191 81.9391 27.6191C81.7009 27.6191 81.7009 27.6191 81.4627 27.6191C81.4627 27.6191 81.4627 27.6191 81.2245 27.6191C80.9863 27.6191 80.7481 27.6191 80.2717 27.6191H80.0335C79.5571 27.6191 79.3189 27.6191 78.8425 27.8572H78.6043C78.3661 27.8572 77.8897 28.0953 77.6515 28.0953C77.4133 28.0953 77.4134 28.0953 77.1752 28.0953C76.937 28.0953 76.6988 28.3334 76.4606 28.3334C76.2224 28.3334 76.2224 28.3334 75.9842 28.5714C75.746 28.5714 75.5078 28.8095 75.2696 28.8095C75.0314 28.8095 75.0314 28.8095 74.7932 29.0476C74.555 29.0476 74.3168 29.2857 74.0786 29.2857C73.8404 29.2857 73.8404 29.2857 73.6022 29.5238C73.364 29.5238 73.1258 29.7619 72.8876 29.7619C72.6495 29.7619 72.6494 29.7619 72.4113 30C71.9349 30.2381 71.6967 30.2381 71.2203 30.4762C70.7439 30.7143 70.5057 30.7143 70.0293 30.9524C69.7911 30.9524 69.7911 30.9524 69.5529 31.1905C69.3147 31.1905 69.0765 31.4286 68.8383 31.4286C68.6001 31.4286 68.6001 31.4286 68.3619 31.6667C68.1237 31.6667 67.8855 31.9048 67.6473 31.9048C67.4092 31.9048 67.4092 31.9048 67.171 32.1429C66.9328 32.1429 66.6946 32.381 66.4564 32.381C66.2182 32.381 66.2182 32.381 65.98 32.6191C65.7418 32.6191 65.5036 32.8572 65.2654 32.8572C65.0272 32.8572 65.0272 32.8572 64.789 32.8572C64.3126 32.8572 64.0744 33.0953 63.598 33.0953C63.1216 33.0953 62.8834 33.3334 62.4071 33.3334C62.1689 33.3334 62.1689 33.3334 61.9307 33.3334C61.6925 33.3334 61.4543 33.3334 61.2161 33.3334C60.9779 33.3334 60.7397 33.3334 60.7397 33.3334C60.5015 33.3334 60.5015 33.3334 60.2633 33.3334C60.0251 33.3334 59.7869 33.3334 59.5487 33.3334C59.3105 33.3334 59.3105 33.3334 59.0723 33.3334H58.8341C58.5959 33.3334 58.1195 33.3334 57.8813 33.0953C57.6432 33.0953 57.6432 33.0953 57.405 33.0953C57.1668 33.0953 56.9286 32.8572 56.6904 32.8572C56.4522 32.8572 56.4522 32.8572 56.214 32.8572C55.7376 32.8572 55.4994 32.6191 55.023 32.381C55.023 32.381 55.023 32.381 54.7848 32.381C54.3084 32.1429 54.0702 32.1429 53.5938 31.9048C53.3556 31.6667 53.1174 31.6667 52.6411 31.4286C52.6411 31.4286 52.4029 31.4286 52.4029 31.1905C52.1647 30.9524 51.9265 30.7143 51.6883 30.7143C51.4501 30.4762 50.9737 30.2381 50.7355 30C50.7355 30 50.7355 30 50.4973 29.7619C50.2591 29.5238 50.0209 29.2857 49.7827 29.0476C49.5445 28.8095 49.5445 28.8095 49.5445 28.5714L49.3063 28.3334C49.0681 28.0953 49.0681 28.0953 49.0681 27.8572C49.0681 27.8572 49.0681 27.6191 48.8299 27.6191C48.5917 27.381 48.5917 27.1429 48.3535 26.9048C48.3535 26.9048 48.3535 26.9048 48.3535 26.6667C48.3535 26.4286 48.1153 26.1905 48.1153 25.9524C47.8772 25.4762 47.8772 25.2381 47.639 24.7619V24.5238C47.639 24.2857 47.4008 23.8095 47.4008 23.5714V23.3334C47.4008 22.8572 47.1626 22.6191 47.1626 22.1429V21.9048C47.1626 21.6667 47.1626 21.1905 46.9244 20.9524V20.7143C46.9244 20 46.6862 19.2857 46.6862 18.5714C46.6862 17.8572 46.6862 17.1429 46.448 16.4286C46.448 16.4286 46.448 16.4286 46.448 16.1905C46.448 15.9524 46.448 15.4762 46.2098 15.2381V15C46.2098 14.5238 45.9716 14.0476 45.9716 13.8095V13.5714C45.9716 13.3334 45.7334 12.8572 45.7334 12.6191V12.381C45.4952 11.9048 45.4952 11.6667 45.257 11.1905C45.257 10.9524 45.0188 10.7143 44.7806 10.2381V10C44.7806 9.76192 44.5424 9.52383 44.5424 9.28573L44.3042 9.04764C44.3042 8.80954 44.066 8.80954 44.066 8.57145L43.8278 8.33335C43.8278 8.09526 43.5896 8.09526 43.5896 7.85716C43.3514 7.61907 43.1133 7.38097 42.8751 7.14288C42.8751 7.14288 42.8751 6.90478 42.6369 6.90478C42.3987 6.66669 41.9223 6.42859 41.6841 6.19049C41.4459 5.9524 41.2077 5.7143 40.9695 5.7143C40.9695 5.7143 40.7313 5.7143 40.7313 5.47621C40.4931 5.47621 40.2549 5.23811 40.2549 5.23811C40.0167 5.23811 40.0167 5.00002 39.7785 5.00002C39.3021 4.76192 39.0639 4.52383 38.5875 4.52383C38.1112 4.28573 37.873 4.28573 37.3966 4.04764C37.3966 4.04764 37.3966 4.04764 37.1584 4.04764H36.9202C36.682 4.04764 36.2056 3.80954 35.9674 3.80954H35.7292H35.491C35.0146 3.80954 34.7764 3.57145 34.3 3.57145H34.0618C33.8236 3.57145 33.8236 3.57145 33.5854 3.57145C33.3473 3.57145 33.1091 3.57145 32.8709 3.57145C32.6327 3.57145 32.6327 3.57145 32.3945 3.57145C32.1563 3.57145 32.1563 3.57145 31.9181 3.57145C31.9181 3.57145 31.9181 3.57145 31.6799 3.57145C31.4417 3.57145 31.2035 3.57145 30.7271 3.57145H30.4889C30.0125 3.57145 29.7743 3.57145 29.2979 3.80954H29.0597C28.8215 3.80954 28.3452 4.04764 28.107 4.04764C27.8688 4.04764 27.8688 4.04764 27.6306 4.04764C27.3924 4.04764 27.1542 4.28573 26.916 4.28573C26.6778 4.28573 26.6778 4.28573 26.4396 4.52383C26.2014 4.52383 25.9632 4.76192 25.725 4.76192C25.4868 4.76192 25.4868 4.76192 25.2486 5.00002C25.0104 5.00002 24.7722 5.23811 24.534 5.23811C24.2958 5.23811 24.2958 5.23811 24.0576 5.47621C23.8194 5.47621 23.5812 5.7143 23.3431 5.7143C23.1049 5.7143 23.1049 5.7143 22.8667 5.9524C23.3431 2.38097 22.8667 2.38097 22.6285 2.61907C22.1521 2.61907 21.9139 2.85716 21.4375 3.09526C21.4375 3.09526 21.1993 3.09526 21.1993 3.33335C20.9611 3.33335 20.7229 3.57145 20.4847 3.57145C20.2465 3.57145 20.2465 3.57145 20.0083 3.80954C19.5319 3.57145 19.2937 3.57145 19.0555 3.80954C18.8173 3.80954 18.8173 3.80954 18.5792 4.04764C18.341 4.04764 18.1028 4.28573 17.8646 4.28573C17.6264 4.28573 17.6264 4.28573 17.3882 4.52383C17.15 4.28573 16.9118 4.28573 16.6736 4.52383C16.4354 4.52383 16.4354 4.52383 16.1972 4.52383C15.959 4.52383 15.7208 4.76192 15.2444 4.76192C14.768 4.76192 14.5298 5.00002 14.0534 5.00002C13.8152 5.00002 13.8152 5.00002 13.5771 5.00002C13.3389 5.00002 13.1007 5.00002 12.8625 5.00002C12.6243 5.00002 12.3861 5.00002 12.3861 5.00002C12.1479 5.00002 12.1479 5.00002 11.9097 5.00002C11.6715 5.00002 11.4333 5.00002 11.1951 5.00002C10.9569 5.00002 10.9569 5.00002 10.7187 5.00002H10.4805C10.2423 5.00002 10.0041 5.00002 9.52773 4.76192C9.52773 4.76192 9.28954 4.76192 9.05134 4.76192C8.81315 4.76192 8.57495 4.76192 8.33676 4.52383C8.09856 4.52383 8.09856 4.52383 7.86037 4.52383C7.62217 4.28573 7.14578 4.28573 6.90759 4.04764C6.90759 4.04764 6.90759 4.04764 6.66939 4.04764C6.4312 3.80954 5.95481 3.57145 5.47842 3.57145L0.476318 34.2857C0.952709 34.5238 1.1909 34.7619 1.66729 34.7619C2.14368 35 2.38188 35 2.85827 35.2381H3.09646C3.33466 35.2381 3.57286 35.4762 3.81105 35.4762H4.04925H4.28744C4.76383 35.7143 5.24022 35.7143 5.47842 35.7143H5.71661C5.95481 35.7143 5.95481 35.7143 6.193 35.7143C6.4312 35.7143 6.66939 35.7143 6.90759 35.7143C7.14578 35.7143 7.14578 35.7143 7.38398 35.7143C7.62217 35.7143 7.62217 35.7143 7.86037 35.7143C7.86037 35.7143 7.86037 35.7143 8.09856 35.7143C8.33676 35.7143 8.57495 35.7143 8.81315 35.7143H9.05134C9.52773 35.7143 9.76593 35.7143 10.2423 35.4762C10.7187 35.4762 10.9569 35.2381 11.4333 35.2381C11.6715 35.2381 11.6715 35.2381 11.9097 35.2381C12.1479 35.2381 12.3861 35 12.6243 35C12.8625 35 12.8625 35 13.1007 34.7619C13.3389 34.7619 13.5771 34.5238 13.8152 34.5238C14.0534 34.5238 14.0534 34.5238 14.2916 34.2857C14.5298 34.2857 14.768 34.0476 15.0062 34.0476C15.2444 34.0476 15.2444 34.0476 15.4826 33.8095C15.7208 33.8095 15.959 33.5714 16.1972 33.5714C16.1972 33.5714 16.4354 33.5714 16.4354 33.3334C16.6736 33.5714 17.15 33.5714 17.6264 33.3334C18.1028 33.0953 18.341 33.0953 18.8173 32.8572C19.0555 32.8572 19.0555 32.8572 19.2937 32.6191C19.5319 32.6191 19.7701 32.381 20.0083 32.381C20.2465 32.381 20.2465 32.381 20.4847 32.1429C20.7229 32.1429 20.9611 31.9048 21.1993 31.9048C21.4375 31.9048 21.4375 31.9048 21.6757 31.6667C21.9139 31.6667 22.1521 31.4286 22.3903 31.4286C22.6285 31.4286 22.6285 31.4286 22.8667 31.1905C23.1049 31.1905 23.3431 30.9524 23.5812 30.9524C23.8194 30.9524 23.8194 30.9524 24.0576 30.9524C24.2958 30.9524 24.7722 30.7143 25.0104 30.7143H25.2486C25.725 30.7143 25.9632 30.4762 26.4396 30.4762H26.6778C26.916 30.4762 27.1542 30.4762 27.6306 30.4762C27.8688 30.4762 28.107 30.4762 28.3452 30.4762C28.5833 30.4762 28.5833 30.4762 28.8215 30.4762C29.0597 30.4762 29.2979 30.4762 29.5361 30.4762C29.7743 30.4762 29.7743 30.4762 30.0125 30.4762H30.2507C30.7271 30.4762 30.9653 30.4762 31.4417 30.7143C31.6799 30.7143 31.6799 30.7143 31.9181 30.7143C32.1563 30.7143 32.6327 30.9524 32.8709 30.9524C33.1091 30.9524 33.1091 30.9524 33.3473 31.1905C33.8236 31.4286 34.0618 31.4286 34.5382 31.6667C35.0146 31.9048 35.2528 31.9048 35.7292 32.1429C35.9674 32.381 36.4438 32.6191 36.682 32.6191C36.682 32.6191 36.9202 32.6191 36.9202 32.8572C37.1584 33.0953 37.6348 33.3334 37.873 33.5714C38.1112 33.8095 38.5875 34.0476 38.8257 34.2857C38.8257 34.2857 38.8257 34.2857 39.0639 34.5238C39.3021 34.7619 39.5403 35 39.7785 35.2381C40.0167 35.4762 40.0167 35.4762 40.2549 35.7143L40.4931 35.9524C40.7313 36.1905 40.7313 36.1905 40.7313 36.4286L40.9695 36.6667C41.2077 36.9048 41.2077 37.1429 41.2077 37.381V37.6191C41.4459 37.8572 41.4459 38.0953 41.6841 38.5714C41.9223 39.0476 41.9223 39.2857 42.1605 39.7619V40C42.1605 40.2381 42.3987 40.7143 42.3987 40.9524V41.1905C42.3987 41.6667 42.6369 41.9048 42.6369 42.381V42.6191C42.6369 42.8572 42.6369 43.3333 42.8751 43.5714V43.8095C42.8751 44.5238 43.1133 45.2381 43.1133 45.9524C43.1133 46.6667 43.1133 47.381 43.3514 48.0953C43.3514 48.0953 43.3514 48.0953 43.3514 48.3333C43.3514 48.5714 43.3514 49.0476 43.5896 49.2857V49.5238C43.5896 50 43.8278 50.2381 43.8278 50.7143V50.9524C43.8278 51.1905 44.066 51.6667 44.066 51.9048V52.1429C44.066 52.6191 44.3042 52.8572 44.5424 53.3333C44.5424 53.5714 44.7806 53.8095 44.7806 53.8095C44.7806 53.8095 44.7806 53.8095 44.7806 54.0476C45.0188 54.2857 45.0188 54.5238 45.257 54.7619C45.257 54.7619 45.257 55 45.4952 55C45.4952 55.2381 45.7334 55.4762 45.7334 55.4762L45.9716 55.7143L46.2098 55.9524C46.448 56.1905 46.6862 56.4286 46.9244 56.6667C46.9244 56.6667 46.9244 56.6667 47.1626 56.9048C47.4008 57.1429 47.639 57.381 48.1153 57.6191C48.3535 57.8572 48.5917 57.8572 48.8299 58.0953C48.8299 58.0953 49.0681 58.0953 49.0681 58.3333C49.3063 58.3333 49.3063 58.5714 49.5445 58.5714L49.7827 58.8095C50.2591 59.0476 50.4973 59.2857 50.9737 59.2857C51.4501 59.5238 51.6883 59.5238 52.1647 59.7619H52.4029C52.6411 59.7619 52.8792 60 53.1174 60H53.3556H53.5938C53.832 60 54.3084 60 54.5466 60.2381H54.7848C55.023 60.2381 55.023 60.2381 55.2612 60.2381C55.4994 60.2381 55.7376 60.2381 55.9758 60.2381C56.214 60.2381 56.214 60.2381 56.4522 60.2381C56.6904 60.2381 56.6904 60.2381 56.9286 60.2381C56.9286 60.2381 56.9286 60.2381 57.1668 60.2381C57.405 60.2381 57.6432 60.2381 57.8813 60.2381H58.1195C58.5959 60.2381 58.8341 60.2381 59.3105 60C59.7869 60 60.0251 59.7619 60.5015 59.7619C60.7397 59.7619 60.7397 59.7619 60.9779 59.7619C61.2161 59.7619 61.4543 59.5238 61.6925 59.5238C61.9307 59.5238 61.9307 59.5238 62.1689 59.2857C62.4071 59.2857 62.6453 59.0476 62.8834 59.0476C63.1216 59.0476 63.1216 59.0476 63.3598 58.8095C63.598 58.8095 63.8362 58.5714 64.0744 58.5714C64.3126 58.5714 64.3126 58.5714 64.5508 58.3333C64.789 58.3333 65.0272 58.0953 65.2654 58.0953C65.5036 58.0953 65.5036 58.0953 65.7418 57.8572C66.2182 57.6191 66.4564 57.6191 66.9328 57.381C67.4092 57.1429 67.6474 57.1429 68.1237 56.9048C68.3619 56.9048 68.3619 56.9048 68.6001 56.6667C68.8383 56.6667 69.0765 56.4286 69.3147 56.4286C69.5529 56.4286 69.5529 56.4286 69.7911 56.1905C70.0293 56.1905 70.2675 55.9524 70.5057 55.9524C70.7439 55.9524 70.7439 55.9524 70.9821 55.7143C71.2203 55.7143 71.4585 55.4762 71.6967 55.4762C71.9349 55.4762 71.9349 55.4762 72.1731 55.2381C72.4113 55.2381 72.6495 55 72.8876 55C73.1258 55 73.1258 55 73.364 55C73.6022 55 74.0786 54.7619 74.3168 54.7619H74.555C75.0314 54.7619 75.2696 54.5238 75.746 54.5238H75.9842C76.2224 54.5238 76.4606 54.5238 76.937 54.5238C77.1752 54.5238 77.4133 54.5238 77.6515 54.5238C77.8897 54.5238 77.8897 54.5238 78.1279 54.5238C78.3661 54.5238 78.6043 54.5238 78.8425 54.5238C79.0807 54.5238 79.0807 54.5238 79.3189 54.5238H79.5571C80.0335 54.5238 80.2717 54.5238 80.7481 54.7619C80.9863 54.7619 80.9863 54.7619 81.2245 54.7619C81.4627 54.7619 81.9391 55 82.1773 55C82.4155 55 82.4155 55 82.6536 55.2381C83.13 55.4762 83.3682 55.4762 83.8446 55.7143C84.321 55.9524 84.5592 55.9524 85.0356 56.1905C85.2738 56.4286 85.7502 56.6667 85.9884 56.6667C85.9884 56.6667 86.2266 56.6667 86.2266 56.9048C86.4648 57.1429 86.9412 57.381 87.1794 57.6191C87.4175 57.8572 87.8939 58.0953 88.1321 58.3333C88.1321 58.3333 88.1321 58.3334 88.3703 58.5714C88.6085 58.8095 88.8467 59.0476 89.0849 59.2857C89.3231 59.5238 89.3231 59.5238 89.5613 59.7619L89.7995 60C90.0377 60.2381 90.0377 60.2381 90.0377 60.4762L90.2759 60.7143C90.5141 60.9524 90.5141 61.1905 90.5141 61.4286V61.6667C90.7523 61.9048 90.7523 62.1429 90.9905 62.6191C91.2287 63.0953 91.2287 63.3333 91.4669 63.8095V64.0476C91.4669 64.2857 91.7051 64.7619 91.7051 65V65.2381C91.7051 65.7143 91.9433 65.9524 91.9433 66.4286V66.6667C91.9433 66.9048 91.9433 67.381 92.1815 67.6191V67.8572C92.1815 68.5714 92.4196 69.2857 92.4196 70C92.4196 70.7143 92.4196 71.4286 92.6578 72.1429C92.6578 72.1429 92.6578 72.1429 92.6578 72.381C92.6578 72.6191 92.6578 73.0953 92.896 73.3333V73.5714C92.896 74.0476 93.1342 74.2857 93.1342 74.7619V75C93.1342 75.2381 93.3724 75.7143 93.3724 75.9524V76.1905C93.3724 76.6667 93.6106 76.9048 93.8488 77.381C93.8488 77.6191 94.087 77.8572 94.087 77.8572C94.087 77.8572 94.087 77.8572 94.087 78.0953C94.3252 78.3333 94.3252 78.5714 94.5634 78.8095C94.5634 78.8095 94.5634 79.0476 94.8016 79.0476C94.8016 79.2857 95.0398 79.5238 95.0398 79.5238L95.278 79.7619L95.5162 80C95.7544 80.2381 95.9926 80.4762 96.2308 80.7143C96.2308 80.7143 96.2308 80.7143 96.469 80.9524C96.7072 81.1905 96.9454 81.4286 97.4217 81.6667C97.6599 81.9048 97.8981 81.9048 98.1363 82.1429C98.1363 82.1429 98.3745 82.1429 98.3745 82.381C98.6127 82.381 98.6127 82.6191 98.8509 82.6191L99.0891 82.8572C99.5655 83.0953 99.8037 83.3334 100.28 83.3334C100.756 83.5714 100.995 83.5714 101.471 83.8095H101.709C101.947 83.8095 102.186 84.0476 102.424 84.0476H102.662H102.9C103.138 84.0476 103.615 84.0476 103.853 84.2857H104.091C104.329 84.2857 104.329 84.2857 104.568 84.2857C104.806 84.2857 105.044 84.2857 105.282 84.2857C105.52 84.2857 105.52 84.2857 105.759 84.2857C105.997 84.2857 105.997 84.2857 106.235 84.2857C106.235 84.2857 106.235 84.2857 106.473 84.2857C106.711 84.2857 106.95 84.2857 107.188 84.2857H107.426C107.902 84.2857 108.141 84.2857 108.617 84.0476C109.093 84.0476 109.331 83.8095 109.808 83.8095C110.046 83.8095 110.046 83.8095 110.284 83.8095C110.522 83.8095 110.761 83.5714 110.999 83.5714C111.237 83.5714 111.237 83.5714 111.475 83.3334C111.713 83.3334 111.952 83.0953 112.19 83.0953C112.428 83.0953 112.428 83.0953 112.666 82.8572C112.904 82.8572 113.143 82.6191 113.381 82.6191C113.619 82.6191 113.619 82.6191 113.857 82.381C114.095 82.381 114.334 82.1429 114.572 82.1429C114.572 82.1429 114.81 82.1429 114.81 81.9048C115.286 81.6667 115.525 81.6667 116.001 81.4286C116.477 81.1905 116.716 81.1905 117.192 80.9524C117.43 80.9524 117.43 80.9524 117.668 80.7143C117.907 80.7143 118.145 80.4762 118.383 80.4762C118.621 80.4762 118.621 80.4762 118.859 80.2381C119.098 80.2381 119.336 80 119.574 80C119.812 80 119.812 80 120.05 79.7619C120.288 79.7619 120.527 79.5238 120.765 79.5238C121.003 79.5238 121.003 79.5238 121.241 79.2857C121.479 79.2857 121.718 79.0476 121.956 79.0476C122.194 79.0476 122.194 79.0476 122.432 79.0476C122.67 79.0476 123.147 78.8095 123.385 78.8095H123.623C124.1 78.8095 124.338 78.5714 124.814 78.5714H125.052C125.291 78.5714 125.529 78.5714 126.005 78.5714C126.243 78.5714 126.482 78.5714 126.72 78.5714C126.958 78.5714 126.958 78.5714 127.196 78.5714C127.434 78.5714 127.673 78.5714 127.911 78.5714C128.149 78.5714 128.149 78.5714 128.387 78.5714H128.625C129.102 78.5714 129.34 78.5714 129.816 78.8095C130.054 78.8095 130.054 78.8095 130.293 78.8095C130.531 78.8095 131.007 79.0476 131.245 79.0476C131.484 79.0476 131.484 79.0476 131.722 79.2857C132.198 79.5238 132.436 79.5238 132.913 79.7619C132.913 79.7619 132.913 79.7619 133.151 79.7619C133.627 80 133.866 80 134.342 80.2381C134.58 80.4762 135.057 80.7143 135.295 80.7143C135.295 80.7143 135.533 80.7143 135.533 80.9524C135.771 81.1905 136.248 81.4286 136.486 81.6667C136.724 81.9048 137.2 82.1429 137.439 82.381C137.439 82.381 137.439 82.381 137.677 82.6191C137.915 82.8572 138.153 83.0953 138.391 83.3334C138.63 83.5714 138.63 83.5714 138.868 83.8095L139.106 84.0476C139.344 84.2857 139.344 84.2857 139.344 84.5238L139.582 84.7619C139.82 85 139.82 85.2381 139.82 85.4762V85.7143C140.059 85.9524 140.059 86.1905 140.297 86.6667C140.535 87.1429 140.535 87.381 140.773 87.8572V88.0953C140.773 88.3334 141.011 88.8095 141.011 89.0476V89.2857C141.011 89.7619 141.25 90 141.25 90.4762V90.7143C141.25 90.9524 141.25 91.4286 141.488 91.6667V91.9048C141.488 92.6191 141.726 93.3334 141.726 94.0476C141.726 94.7619 141.726 95.4762 141.964 96.1905C141.964 96.1905 141.964 96.1905 141.964 96.4286C141.964 96.6667 141.964 97.1429 142.202 97.381V97.6191C142.202 98.0953 142.441 98.3334 142.441 98.8095V99.0476C142.441 99.2857 142.679 99.7619 142.679 100V100.238C142.679 100.714 142.917 100.952 143.155 101.429C143.155 101.667 143.393 101.905 143.393 102.143C143.393 102.143 143.393 102.143 143.393 102.381C143.632 102.619 143.632 102.857 143.87 103.095C143.87 103.095 143.87 103.333 144.108 103.333C144.108 103.571 144.346 103.81 144.346 103.81L144.584 104.048L144.823 104.286C145.061 104.524 145.299 104.762 145.537 105C145.537 105 145.537 105 145.775 105.238C146.014 105.476 146.252 105.714 146.728 105.952C146.966 106.19 147.205 106.19 147.443 106.429C147.443 106.429 147.681 106.429 147.681 106.667C146.728 110.476 146.728 110.476 146.966 110.714Z" fill="url(#paint0_linear)"/>
<path d="M146.728 111.429C140.297 108.095 139.821 102.619 139.582 97.381C139.106 92.1429 138.63 87.1429 132.913 84.0477C126.958 80.9524 121.718 82.8572 116.001 85C110.284 87.1429 104.33 89.0477 97.8983 85.9524C91.467 82.6191 90.9906 77.1429 90.7524 71.9048C90.276 66.6667 89.7997 61.6667 84.083 58.5715C78.1281 55.4762 72.8878 57.381 67.1711 59.5238C61.4544 61.6667 55.4996 63.5715 49.0683 60.4762C42.637 57.1429 42.1606 51.6667 41.9224 46.4286C41.446 41.1905 40.9697 36.1905 35.253 33.0953C29.5363 30 24.0578 31.9048 18.3411 34.0477C12.6244 36.1905 6.66955 38.0953 0.238281 35L0.714672 34.2857C6.43135 37.381 11.9098 35.4762 17.6265 33.3334C23.3432 31.1905 29.2981 29.2857 35.7294 32.381C42.1606 35.7143 42.637 41.1905 42.8752 46.4286C43.3516 51.6667 43.828 56.6667 49.5447 59.7619C55.4995 62.8572 60.7398 60.9524 66.4565 58.8096C72.1732 56.6667 78.1281 54.7619 84.5594 57.8572C90.9906 61.1905 91.467 66.6667 91.7052 71.9048C92.1816 77.1429 92.658 82.1429 98.3747 85.2381C104.33 88.3334 109.57 86.4286 115.287 84.2858C121.003 82.1429 126.958 80.2381 133.389 83.3334C139.821 86.6667 140.297 92.1429 140.535 97.381C141.012 102.619 141.488 107.619 147.205 110.714L146.728 111.429Z" fill="url(#paint1_linear)"/>
</g>
<defs>
<linearGradient id="paint0_linear" x1="169.239" y1="70.9557" x2="-3.11901" y2="36.4151" gradientUnits="userSpaceOnUse">
<stop stop-color="#8E4B19"/>
<stop offset="0.0752685" stop-color="#DD9740"/>
<stop offset="0.172" stop-color="#FAEBCB"/>
<stop offset="0.1832" stop-color="#F4D395"/>
<stop offset="0.2021" stop-color="#EAAD3D"/>
<stop offset="0.2038" stop-color="#E8AB3C"/>
<stop offset="0.2783" stop-color="#9A4721"/>
<stop offset="0.3849" stop-color="#DD9740"/>
<stop offset="0.457" stop-color="#EBD6A9"/>
<stop offset="0.4969" stop-color="#EEBD62"/>
<stop offset="0.4998" stop-color="#EAB55B"/>
<stop offset="0.5098" stop-color="#E19F47"/>
<stop offset="0.5162" stop-color="#DD9740"/>
<stop offset="0.5591" stop-color="#834016"/>
<stop offset="0.6298" stop-color="#97541D"/>
<stop offset="0.687" stop-color="#C37934"/>
<stop offset="0.7511" stop-color="#E7B36E"/>
<stop offset="0.814" stop-color="#B46C2A"/>
<stop offset="0.8324" stop-color="#9F5921"/>
<stop offset="0.8508" stop-color="#914D1B"/>
<stop offset="0.8668" stop-color="#8C4919"/>
<stop offset="0.957" stop-color="#A75B29"/>
</linearGradient>
<linearGradient id="paint1_linear" x1="57.9272" y1="17.7538" x2="89.5396" y2="127.934" gradientUnits="userSpaceOnUse">
<stop stop-color="#803916"/>
<stop offset="0.0268822" stop-color="#9A4721"/>
<stop offset="0.1613" stop-color="#DD9740"/>
<stop offset="0.1947" stop-color="#E7B36E"/>
<stop offset="0.2287" stop-color="#EFCB96"/>
<stop offset="0.2598" stop-color="#F5DDB3"/>
<stop offset="0.2868" stop-color="#F9E7C5"/>
<stop offset="0.3065" stop-color="#FAEBCB"/>
<stop offset="0.3357" stop-color="#F7E0B1"/>
<stop offset="0.3982" stop-color="#F1CA7F"/>
<stop offset="0.453" stop-color="#EDBA5B"/>
<stop offset="0.4975" stop-color="#EBB145"/>
<stop offset="0.5259" stop-color="#EAAD3D"/>
<stop offset="0.7581" stop-color="#A75B29"/>
<stop offset="0.8763" stop-color="#B46C2A"/>
<stop offset="0.957" stop-color="#642806"/>
<stop offset="0.9892" stop-color="#7D3D16"/>
</linearGradient>
<clipPath id="clip0">
<rect width="227" height="340" fill="white"/>
</clipPath>
</defs>
</svg>
