<svg width="209" height="61" viewBox="0 0 209 61" fill="none" xmlns="http://www.w3.org/2000/svg">
<path d="M52.6448 61H8.42317C3.0417 61 0 57.2605 0 51.9435V8.41379C0 3.03831 3.0417 0 8.42317 0H52.6448C58.0263 0 61.068 3.03831 61.068 8.41379V51.9435C61.068 57.2605 58.0263 61 52.6448 61Z" fill="#5B3D80"/>
<path d="M13.9217 46.9769L11.9914 45.0488C11.2895 44.3476 10.1196 44.4645 9.59312 45.2825C6.49292 50.0152 6.78539 51.885 7.89678 52.9951C9.06667 54.1637 10.88 54.3974 15.618 51.2423C16.4369 50.7164 16.5539 49.5478 15.852 48.8467L13.9217 46.9769Z" fill="#16F2C7"/>
<path d="M47.2637 7.5957C47.4392 7.53727 47.6146 7.47884 47.8486 7.42041C47.6146 7.47884 47.4392 7.53727 47.2637 7.5957Z" fill="#16F2C7"/>
<path d="M45.8596 8.12166C46.0936 8.06323 46.2691 7.94637 46.5031 7.88794C46.2691 7.94637 46.0351 8.0048 45.8596 8.12166Z" fill="#16F2C7"/>
<path d="M48.0823 21.7356C48.0238 21.7356 48.0238 21.6771 47.9653 21.6771C47.9653 21.6771 48.0238 21.7356 48.0823 21.7356Z" fill="#16F2C7"/>
<path d="M46.5615 7.82946C46.737 7.77103 46.9125 7.7126 47.088 7.65417C46.9125 7.7126 46.737 7.77103 46.5615 7.82946Z" fill="#16F2C7"/>
<path d="M48.2581 21.8524C48.1996 21.8524 48.1996 21.7939 48.1411 21.7939C48.1996 21.7939 48.1996 21.8524 48.2581 21.8524Z" fill="#16F2C7"/>
<path d="M47.8486 7.4204C48.0241 7.36198 48.1996 7.30355 48.3751 7.24512C48.1996 7.30355 48.0241 7.36198 47.8486 7.4204Z" fill="#16F2C7"/>
<path d="M49.0769 7.12837C49.2524 7.06995 49.4279 7.06995 49.6034 7.06995C49.3694 7.06995 49.2524 7.06995 49.0769 7.12837Z" fill="#16F2C7"/>
<path d="M48.4919 7.24515C48.6674 7.18673 48.7844 7.18673 48.9599 7.1283C48.8429 7.1283 48.6674 7.18673 48.4919 7.24515Z" fill="#16F2C7"/>
<path d="M45.1577 8.41377C45.3332 8.35534 45.5087 8.23848 45.6842 8.18005C45.5087 8.23848 45.3332 8.35534 45.1577 8.41377Z" fill="#16F2C7"/>
<path d="M41.9404 10.0498C42.1744 9.93293 42.3499 9.81608 42.5254 9.69922C42.3499 9.81608 42.1744 9.93293 41.9404 10.0498Z" fill="#16F2C7"/>
<path d="M39.2498 11.6858C39.5422 11.5105 39.7762 11.3352 40.0687 11.1599C39.7762 11.3936 39.4837 11.5105 39.2498 11.6858Z" fill="#16F2C7"/>
<path d="M42.7009 9.64074C42.9349 9.52388 43.1689 9.40702 43.4029 9.29016C43.2274 9.34859 42.9934 9.46545 42.7009 9.64074Z" fill="#16F2C7"/>
<path d="M41.0046 10.5756C41.2386 10.4003 41.5311 10.2834 41.7651 10.1082C41.5311 10.2834 41.2971 10.4587 41.0046 10.5756Z" fill="#16F2C7"/>
<path d="M47.907 21.6186C47.8485 21.5602 47.79 21.5018 47.79 21.4434C47.79 21.5018 47.8485 21.5602 47.907 21.6186Z" fill="#16F2C7"/>
<path d="M44.3389 8.76431C44.5728 8.64745 44.8068 8.5306 44.9823 8.47217C44.8068 8.58903 44.5728 8.70588 44.3389 8.76431Z" fill="#16F2C7"/>
<path d="M49.6619 7.01143C49.7789 7.01143 49.9543 7.01143 50.0713 6.953C49.9543 7.01143 49.7789 7.01143 49.6619 7.01143Z" fill="#16F2C7"/>
<path d="M43.0519 15.6005C42.584 15.1915 42.116 14.8409 41.5896 14.4904C42.116 14.8409 42.584 15.1915 43.0519 15.6005Z" fill="#16F2C7"/>
<path d="M43.5784 9.17325C43.7539 9.05639 43.9293 8.99796 44.1633 8.8811C43.9878 8.93953 43.8123 9.05639 43.5784 9.17325Z" fill="#16F2C7"/>
<path d="M51.4165 7.06995C51.475 7.06995 51.5335 7.06995 51.592 7.12837C51.5335 7.06995 51.475 7.06995 51.4165 7.06995Z" fill="#16F2C7"/>
<path d="M52.0015 7.18677C52.06 7.18677 52.1184 7.2452 52.1769 7.2452C52.06 7.2452 52.06 7.2452 52.0015 7.18677Z" fill="#16F2C7"/>
<path d="M52.4695 7.47888C52.528 7.53731 52.5865 7.53731 52.645 7.59574C52.5865 7.53731 52.528 7.47888 52.4695 7.47888Z" fill="#16F2C7"/>
<path d="M52.7036 7.5957C52.7621 7.65413 52.8206 7.71256 52.8791 7.77099C52.8791 7.71256 52.7621 7.65413 52.7036 7.5957Z" fill="#16F2C7"/>
<path d="M52.2356 7.30359C52.2941 7.30359 52.3526 7.36202 52.4111 7.36202C52.3526 7.36202 52.2941 7.36202 52.2356 7.30359Z" fill="#16F2C7"/>
<path d="M40.2444 11.1015C40.4784 10.9847 40.7123 10.8094 40.9463 10.6925C40.7123 10.8094 40.4784 10.9262 40.2444 11.1015Z" fill="#16F2C7"/>
<path d="M51.709 7.1283C51.7675 7.1283 51.826 7.18673 51.8845 7.18673C51.826 7.1283 51.7675 7.1283 51.709 7.1283Z" fill="#16F2C7"/>
<path d="M41.5896 14.4904C41.2386 14.2567 40.9462 14.0229 40.5952 13.8477C40.9462 14.0229 41.2971 14.2567 41.5896 14.4904Z" fill="#16F2C7"/>
<path d="M38.9573 12.7374C38.8988 12.6206 38.8403 12.5037 38.8403 12.3868C38.8988 12.5037 38.8988 12.679 38.9573 12.7374Z" fill="#16F2C7"/>
<path d="M53.0546 13.7893C52.9376 14.0815 52.8206 14.432 52.7036 14.7242C52.8206 14.432 52.9376 14.0815 53.0546 13.7893Z" fill="#16F2C7"/>
<path d="M53.7563 10.5172C53.7563 11.1015 53.6394 11.7442 53.4639 12.4454C53.6394 11.7442 53.7563 11.1015 53.7563 10.5172Z" fill="#16F2C7"/>
<path d="M40.0103 11.2183C40.0687 11.1599 40.1272 11.1599 40.2442 11.1014C40.1857 11.1014 40.0687 11.1599 40.0103 11.2183Z" fill="#16F2C7"/>
<path d="M53.4639 12.4453C53.3469 12.8543 53.2299 13.3217 53.0544 13.7892C53.2299 13.3217 53.3469 12.8543 53.4639 12.4453Z" fill="#16F2C7"/>
<path d="M48.7259 21.7939C48.6674 21.7939 48.6674 21.8524 48.6089 21.8524C48.6674 21.8524 48.7259 21.8524 48.7259 21.7939Z" fill="#16F2C7"/>
<path d="M48.9014 21.7355C48.8429 21.7355 48.8429 21.7939 48.7844 21.7939C48.8429 21.7355 48.9014 21.7355 48.9014 21.7355Z" fill="#16F2C7"/>
<path d="M48.1408 21.7939C48.1408 21.7939 48.0823 21.7939 48.0823 21.7355C48.0823 21.7939 48.1408 21.7939 48.1408 21.7939Z" fill="#16F2C7"/>
<path d="M49.1353 21.5018C49.0768 21.5603 49.0768 21.6187 49.0183 21.6771C49.0183 21.6187 49.0768 21.5603 49.1353 21.5018Z" fill="#16F2C7"/>
<path d="M52.7034 14.724C52.5864 15.0746 52.4109 15.3667 52.2939 15.7173C52.4109 15.4251 52.5864 15.0746 52.7034 14.724Z" fill="#16F2C7"/>
<path d="M50.9487 6.953C51.0072 6.953 51.0657 6.953 51.0657 6.953C51.0072 7.01143 51.0072 7.01143 50.9487 6.953Z" fill="#16F2C7"/>
<path d="M51.592 7.06995C51.6505 7.06995 51.6505 7.06995 51.709 7.12837C51.6505 7.12837 51.592 7.06995 51.592 7.06995Z" fill="#16F2C7"/>
<path d="M51.8845 7.18677C51.943 7.18677 51.943 7.18677 52.0015 7.2452C51.943 7.18677 51.8845 7.18677 51.8845 7.18677Z" fill="#16F2C7"/>
<path d="M52.1187 7.24512C52.1771 7.24512 52.1771 7.30355 52.2356 7.30355C52.2356 7.30355 52.1771 7.30355 52.1187 7.24512Z" fill="#16F2C7"/>
<path d="M38.9573 12.7374C39.0158 12.8543 39.1328 12.9711 39.2497 13.0296C39.7177 13.2633 40.1272 13.497 40.5366 13.7892C40.1272 13.497 39.6592 13.2633 39.2497 13.0296C39.1328 12.9711 39.0743 12.8543 38.9573 12.7374Z" fill="#16F2C7"/>
<path d="M52.9375 7.771C53.581 8.35529 53.8149 9.29015 53.8149 10.4587C53.8149 9.34858 53.5225 8.41372 52.9375 7.771Z" fill="#16F2C7"/>
<path d="M52.4111 7.42041C52.4696 7.42041 52.4696 7.47884 52.5281 7.47884C52.4696 7.42041 52.4111 7.42041 52.4111 7.42041Z" fill="#16F2C7"/>
<path d="M52.645 7.53735L52.7035 7.59578C52.7035 7.59578 52.645 7.59578 52.645 7.53735Z" fill="#16F2C7"/>
<path d="M40.8877 10.6341C40.9462 10.6341 40.9462 10.5757 41.0047 10.5757C41.0047 10.6341 40.9462 10.6341 40.8877 10.6341Z" fill="#16F2C7"/>
<path d="M43.4614 9.23177C43.5199 9.23177 43.5784 9.17334 43.6369 9.17334C43.5199 9.17334 43.5199 9.23177 43.4614 9.23177Z" fill="#16F2C7"/>
<path d="M44.1633 8.88118C44.2218 8.88118 44.2803 8.82275 44.3388 8.82275C44.2803 8.82275 44.2218 8.82275 44.1633 8.88118Z" fill="#16F2C7"/>
<path d="M42.584 9.69918C42.6425 9.69918 42.701 9.64075 42.7595 9.64075C42.701 9.64075 42.6425 9.69918 42.584 9.69918Z" fill="#16F2C7"/>
<path d="M41.7651 10.1665C41.8236 10.1081 41.8821 10.1081 41.9406 10.0497C41.8821 10.0497 41.8236 10.1081 41.7651 10.1665Z" fill="#16F2C7"/>
<path d="M44.9822 8.47213C45.0407 8.47213 45.0407 8.4137 45.0992 8.4137C45.0992 8.4137 45.0407 8.47213 44.9822 8.47213Z" fill="#16F2C7"/>
<path d="M48.3748 7.2452C48.4332 7.2452 48.4917 7.2452 48.4917 7.18677C48.4917 7.2452 48.4332 7.2452 48.3748 7.2452Z" fill="#16F2C7"/>
<path d="M45.6841 8.18001C45.7426 8.18001 45.8011 8.12158 45.8596 8.12158C45.8011 8.12158 45.7426 8.18001 45.6841 8.18001Z" fill="#16F2C7"/>
<path d="M46.4446 7.88781H46.5031C46.5031 7.82939 46.5031 7.82939 46.4446 7.88781Z" fill="#16F2C7"/>
<path d="M47.0879 7.65413C47.1464 7.65413 47.2049 7.5957 47.2634 7.5957C47.2049 7.5957 47.1464 7.65413 47.0879 7.65413Z" fill="#16F2C7"/>
<path d="M52.9376 7.77101C52.8791 7.71258 52.8206 7.65415 52.7036 7.59572L52.6451 7.53729C52.5866 7.47886 52.5281 7.47887 52.4696 7.42044C52.4111 7.42044 52.4111 7.36201 52.3526 7.36201C52.2942 7.36201 52.2357 7.30358 52.1772 7.30358C52.1187 7.30358 52.1187 7.24515 52.0602 7.24515C52.0017 7.24515 51.9432 7.18672 51.8847 7.18672C51.8262 7.18672 51.8262 7.18672 51.7677 7.12829C51.7092 7.12829 51.6507 7.06986 51.5922 7.06986C51.5337 7.06986 51.5337 7.06986 51.4752 7.01143C51.4167 7.01143 51.3582 7.01143 51.2998 6.953C51.2413 6.953 51.1828 6.953 51.1828 6.953C51.1243 6.953 51.0658 6.953 51.0073 6.953C50.9488 6.953 50.8903 6.953 50.8903 6.953C50.8318 6.953 50.7733 6.953 50.7148 6.953C50.6563 6.953 50.5978 6.953 50.5978 6.953C50.4808 6.953 50.3053 6.953 50.1299 6.953C50.0714 6.953 50.0714 6.953 50.0129 6.953C49.8959 6.953 49.7789 6.953 49.6034 7.01143C49.5449 7.01143 49.5449 7.01143 49.4864 7.01143C49.3109 7.01143 49.1355 7.06986 48.96 7.06986H48.9015C48.726 7.06986 48.609 7.12829 48.4335 7.18672C48.375 7.18672 48.3165 7.18672 48.3165 7.24515C48.1411 7.30358 47.9656 7.36201 47.7901 7.42044C47.6146 7.47887 47.4391 7.53729 47.2052 7.59572C47.1467 7.59572 47.0882 7.65415 47.0297 7.65415C46.8542 7.71258 46.6787 7.77101 46.5032 7.82944H46.4447C46.2692 7.88787 46.0353 8.00473 45.8013 8.06316C45.7428 8.06316 45.6843 8.12159 45.6258 8.12159C45.4503 8.18001 45.2748 8.29687 45.0994 8.3553C45.0409 8.3553 45.0409 8.41373 44.9824 8.41373C44.7484 8.53059 44.5144 8.58902 44.3389 8.70588C44.2804 8.70588 44.2219 8.76431 44.1635 8.76431C43.988 8.88116 43.8125 8.93959 43.5785 9.05645C43.52 9.05645 43.4615 9.11488 43.403 9.11488C43.169 9.23174 42.9351 9.3486 42.7011 9.46546C42.6426 9.46546 42.5841 9.52388 42.5256 9.52388C42.3501 9.64074 42.1162 9.7576 41.9407 9.87446C41.8822 9.93289 41.8237 9.93289 41.7652 9.99132C41.5312 10.1082 41.2387 10.2835 41.0048 10.4587C40.9463 10.4587 40.9463 10.5172 40.8878 10.5172C40.6538 10.634 40.4198 10.8093 40.1858 10.9262C40.1273 10.9846 40.0689 10.9846 39.9519 11.043C39.6594 11.2183 39.4254 11.3936 39.1329 11.5689C38.899 11.7442 38.782 11.9779 38.782 12.2701C38.782 12.3869 38.8405 12.5038 38.899 12.6206C38.9575 12.7375 39.0745 12.8543 39.1914 12.9128C39.6594 13.1465 40.0689 13.3802 40.4783 13.6724C40.8293 13.9061 41.1218 14.0814 41.4727 14.3151C41.9407 14.6656 42.4671 15.0162 42.9351 15.4252C43.3445 15.7758 43.6955 16.1264 44.0465 16.4769C45.5088 17.8792 46.7372 19.5153 47.6731 21.3266C47.7316 21.385 47.7316 21.4434 47.7901 21.5019C47.7901 21.5019 47.8486 21.5019 47.8486 21.5603C47.9071 21.6187 47.9071 21.6187 47.9656 21.6187C47.9656 21.6187 48.0241 21.6187 48.0241 21.6771C48.0826 21.6771 48.0826 21.7356 48.1411 21.7356H48.1996C48.2581 21.7356 48.2581 21.7356 48.3165 21.7356C48.375 21.7356 48.375 21.7356 48.4335 21.7356H48.492C48.5505 21.7356 48.5505 21.7356 48.609 21.6771H48.6675C48.726 21.6771 48.726 21.6187 48.7845 21.6187C48.7845 21.6187 48.843 21.6187 48.843 21.5603C48.9015 21.5019 48.96 21.4434 48.96 21.385C50.3053 19.2815 51.3582 17.3534 52.1187 15.6589C52.2942 15.3084 52.4111 14.9578 52.5281 14.6656C52.6451 14.3151 52.7621 14.0229 52.8791 13.7308C53.0546 13.2633 53.1716 12.7959 53.2886 12.3869C53.464 11.6858 53.581 11.043 53.581 10.4587C53.815 9.3486 53.5225 8.41373 52.9376 7.77101Z" fill="#16F2C7"/>
<path d="M36.793 14.4903C36.2666 14.2566 35.6231 14.315 35.1552 14.6656C33.5174 15.9511 31.8795 17.2365 30.1832 18.6388C26.4395 21.7355 22.9884 24.7739 19.7712 27.8122C14.9747 27.111 9.30073 28.9223 4.21173 33.5966C3.68528 34.1225 3.68528 34.9405 4.21173 35.4664L8.13085 39.3811C9.00826 40.2576 9.76868 40.5497 10.7046 39.6733L15.9106 44.8735L21.2921 50.1905C20.3561 51.1254 20.6486 51.8265 21.526 52.703L25.4451 56.6177C25.9716 57.1436 26.849 57.1436 27.317 56.5593C32.055 51.3007 33.8098 45.4578 32.9324 40.6666C35.9156 37.453 38.9573 34.0057 41.9405 30.2662C43.2859 28.6302 44.5728 26.9357 45.8011 25.2997C46.1521 24.8323 46.2106 24.1896 45.9766 23.6637C44.0463 19.6905 40.8291 16.4769 36.793 14.4903ZM26.7905 37.2193C26.6735 37.8035 26.4395 38.271 26.0301 38.68C25.7961 38.9721 25.4451 39.1474 25.0942 39.3227C24.7432 39.498 24.3922 39.5564 23.9828 39.5564C23.6318 39.5564 23.2224 39.498 22.8714 39.3811C22.5204 39.2643 22.228 39.0306 21.9355 38.7968C21.526 38.3878 21.2336 37.9204 21.1166 37.3361C21.0581 36.8103 21.1166 36.226 21.2921 35.7001C21.4675 35.1742 21.8185 34.7068 22.2865 34.4147C22.7544 34.0641 23.2809 33.8888 23.8658 33.8888C24.4507 33.8888 24.9772 34.0057 25.4451 34.2978C25.9131 34.5899 26.3226 35.0574 26.5565 35.5248C26.7905 36.0507 26.9075 36.635 26.7905 37.2193ZM33.0494 31.3179C32.8739 31.8438 32.523 32.3112 32.055 32.6034C31.587 32.9539 31.0606 33.1292 30.4757 33.1292C29.8907 33.1292 29.3643 33.0124 28.8963 32.7202C28.4284 32.4281 28.0189 31.9606 27.7849 31.4932C27.5509 30.9673 27.4924 30.383 27.6094 29.8572C27.7264 29.2729 27.9604 28.8055 28.3699 28.3965C28.8963 27.8706 29.5982 27.52 30.3587 27.52C31.1191 27.52 31.821 27.7537 32.406 28.2796C32.8154 28.6886 33.1079 29.156 33.2249 29.7403C33.3419 30.2078 33.2834 30.7921 33.0494 31.3179ZM39.4838 24.8907C39.3083 25.4166 38.9573 25.884 38.4894 26.1762C38.0214 26.5267 37.495 26.702 36.91 26.702C36.3251 26.702 35.7986 26.5852 35.3307 26.293C34.8627 26.0009 34.4533 25.5334 34.2193 25.066C33.9853 24.5401 33.9268 23.9558 34.0438 23.43C34.1608 22.8457 34.3948 22.3783 34.8042 21.9693C35.3307 21.4434 36.0326 21.0928 36.793 21.0928C37.5535 21.0928 38.2554 21.3265 38.8403 21.8524C39.2498 22.2614 39.5423 22.7288 39.6593 23.3131C39.7177 23.7806 39.7177 24.3648 39.4838 24.8907Z" fill="#16F2C7"/>
<path d="M81.7166 19.1063L81.9506 22.203C83.8809 19.8075 86.4546 18.5804 89.7303 18.5804C92.5965 18.5804 94.7023 19.3985 96.1062 21.0929C97.51 22.7873 98.212 25.2998 98.2705 28.6303V46.0421H91.0757V28.8055C91.0757 27.2864 90.7247 26.1762 90.0813 25.4751C89.4378 24.7739 88.3264 24.4234 86.7471 24.4234C84.6998 24.4234 83.1789 25.2998 82.1845 26.9942V46.0421H74.9897V19.1063H81.7166Z" fill="#5B3D80"/>
<path d="M113.42 41.0756C114.473 41.0756 115.468 40.8419 116.345 40.3744C117.223 39.907 117.924 39.2643 118.334 38.4463V33.8304H115.643C112.017 33.8304 110.086 35.0574 109.852 37.5698V37.9788C109.852 38.8553 110.145 39.6148 110.788 40.1991C111.49 40.7834 112.309 41.0756 113.42 41.0756ZM119.387 46.1005C119.036 45.4578 118.802 44.6397 118.685 43.7049C116.93 45.633 114.649 46.6263 111.841 46.6263C109.209 46.6263 106.986 45.8668 105.231 44.3476C103.476 42.8284 102.657 40.9003 102.657 38.5631C102.657 35.7001 103.71 33.4798 105.816 31.9606C107.922 30.4415 111.022 29.6819 115.058 29.6235H118.392V28.0459C118.392 26.8189 118.041 25.8256 117.398 25.066C116.755 24.3064 115.76 23.9558 114.356 23.9558C113.128 23.9558 112.192 24.248 111.49 24.8323C110.788 25.4166 110.437 26.2346 110.437 27.2279H103.242C103.242 25.6503 103.71 24.1896 104.705 22.9041C105.699 21.5603 107.045 20.5085 108.799 19.8074C110.554 19.0478 112.543 18.6388 114.766 18.6388C118.1 18.6388 120.732 19.4568 122.663 21.1512C124.651 22.7873 125.587 25.1829 125.587 28.1627V39.8486C125.587 42.4194 125.938 44.3476 126.64 45.633V46.042H119.387V46.1005Z" fill="#5B3D80"/>
<path d="M140.854 37.2777L145.885 19.1062H153.43L144.305 46.1005H137.403L128.336 19.1062H135.882L140.854 37.2777Z" fill="#5B3D80"/>
<path d="M173.787 32.3112C173.787 29.5651 173.377 27.5785 172.5 26.3515C171.622 25.066 170.335 24.4817 168.639 24.4817C166.358 24.4817 164.778 25.4166 163.901 27.2863V37.9204C164.778 39.7902 166.358 40.7835 168.698 40.7835C171.037 40.7835 172.558 39.6149 173.319 37.3361C173.611 36.226 173.787 34.5315 173.787 32.3112ZM180.981 32.8371C180.981 37.1608 180.045 40.5497 178.232 42.9453C176.36 45.3409 173.787 46.5679 170.511 46.5679C167.586 46.5679 165.246 45.4578 163.492 43.1791L163.141 46.0421H156.648V7.771H163.843V21.5018C165.48 19.5737 167.703 18.5804 170.394 18.5804C173.67 18.5804 176.243 19.8074 178.115 22.203C179.987 24.5986 180.923 27.9875 180.923 32.4281V32.8371H180.981Z" fill="#5B3D80"/>
<path d="M197.067 24.4234C195.663 24.4234 194.493 24.8908 193.557 25.8841C192.68 26.8774 192.095 28.2213 191.861 30.0326H201.922V29.4483C201.864 27.8707 201.454 26.6437 200.635 25.7672C199.758 24.8908 198.588 24.4234 197.067 24.4234ZM197.886 46.568C193.908 46.568 190.691 45.341 188.176 42.9454C185.719 40.4914 184.432 37.2778 184.432 33.2462V32.545C184.432 29.8573 184.959 27.4032 186.012 25.2998C187.065 23.1379 188.527 21.5019 190.457 20.3333C192.388 19.1647 194.61 18.5804 197.067 18.5804C200.752 18.5804 203.677 19.749 205.783 22.0862C207.889 24.4234 209 27.6954 209 31.9607V34.8822H191.803C192.037 36.635 192.739 38.0373 193.908 39.1475C195.078 40.1992 196.599 40.7251 198.354 40.7251C201.162 40.7251 203.326 39.7318 204.847 37.6868L208.415 41.66C207.362 43.1791 205.841 44.4061 204.028 45.2241C202.156 46.159 200.109 46.568 197.886 46.568Z" fill="#5B3D80"/>
</svg>
