<svg width="46" height="46" viewBox="0 0 46 46" fill="none" xmlns="http://www.w3.org/2000/svg">
<path d="M32.6171 46H13.3829C5.96725 46 0 40.0327 0 32.6171V13.3829C0 5.96725 5.96725 0 13.3829 0H32.6171C39.9748 0 46 5.96725 46 13.3829V32.6171C46 40.0327 40.0327 46 32.6171 46Z" fill="#5B3D80"/>
<path d="M11.0654 34.8766L9.67497 33.4862C9.15356 32.9648 8.34247 33.0806 7.93693 33.66C5.67748 37.0781 5.90922 38.4106 6.72031 39.2217C7.53139 40.0328 8.86388 40.2645 12.282 37.9471C12.8614 37.5416 12.9772 36.7305 12.4558 36.2091L11.0654 34.8766Z" fill="#16F2C7"/>
<path d="M35.0503 6.48867C35.1662 6.43074 35.34 6.3728 35.4558 6.3728C35.34 6.43074 35.1662 6.48867 35.0503 6.48867Z" fill="#16F2C7"/>
<path d="M34.0652 6.89414C34.239 6.83621 34.3549 6.77827 34.5287 6.72034C34.3549 6.77827 34.1811 6.83621 34.0652 6.89414Z" fill="#16F2C7"/>
<path d="M35.6295 16.7431L35.5715 16.6852C35.5715 16.6852 35.6295 16.6852 35.6295 16.7431Z" fill="#16F2C7"/>
<path d="M34.5288 6.72036C34.6447 6.66243 34.7606 6.60449 34.9344 6.60449C34.8185 6.60449 34.7026 6.66243 34.5288 6.72036Z" fill="#16F2C7"/>
<path d="M35.7454 16.801C35.7454 16.801 35.6875 16.801 35.6875 16.743C35.7454 16.743 35.7454 16.743 35.7454 16.801Z" fill="#16F2C7"/>
<path d="M35.4556 6.37283C35.5714 6.31489 35.7452 6.31489 35.8611 6.25696C35.7452 6.31489 35.5714 6.37283 35.4556 6.37283Z" fill="#16F2C7"/>
<path d="M36.3247 6.14106C36.4406 6.14106 36.5564 6.08313 36.6723 6.08313C36.6144 6.14106 36.4985 6.14106 36.3247 6.14106Z" fill="#16F2C7"/>
<path d="M35.9771 6.25691C36.0929 6.25691 36.2088 6.19897 36.3247 6.19897C36.2088 6.19897 36.0929 6.19897 35.9771 6.25691Z" fill="#16F2C7"/>
<path d="M33.5442 7.12595C33.6601 7.06802 33.8339 7.01008 33.9497 6.95215C33.7759 7.01008 33.6601 7.06802 33.5442 7.12595Z" fill="#16F2C7"/>
<path d="M31.2266 8.28459C31.4004 8.22666 31.5162 8.11079 31.69 8.05286C31.5742 8.11079 31.4004 8.16873 31.2266 8.28459Z" fill="#16F2C7"/>
<path d="M29.2568 9.5013C29.4306 9.38543 29.6624 9.26956 29.8362 9.15369C29.6624 9.21162 29.4886 9.38543 29.2568 9.5013Z" fill="#16F2C7"/>
<path d="M31.8059 7.995C31.9797 7.87913 32.1535 7.82119 32.3273 7.70532C32.1535 7.82119 31.9797 7.87913 31.8059 7.995Z" fill="#16F2C7"/>
<path d="M30.5894 8.69019C30.7632 8.57432 30.937 8.45845 31.1108 8.40051C30.937 8.45845 30.7632 8.57432 30.5894 8.69019Z" fill="#16F2C7"/>
<path d="M35.5136 16.6272C35.4556 16.5693 35.4556 16.5693 35.3977 16.5114C35.4556 16.5693 35.5136 16.5693 35.5136 16.6272Z" fill="#16F2C7"/>
<path d="M32.9646 7.35771C33.1384 7.29978 33.3122 7.18391 33.4281 7.12598C33.2543 7.24185 33.1384 7.29978 32.9646 7.35771Z" fill="#16F2C7"/>
<path d="M32.0375 12.2822C31.6898 11.9925 31.3422 11.7028 30.9946 11.4711C31.3422 11.7028 31.6898 11.9925 32.0375 12.2822Z" fill="#16F2C7"/>
<path d="M32.4429 7.64739C32.5587 7.58945 32.7325 7.53152 32.8484 7.41565C32.6746 7.53152 32.5587 7.58945 32.4429 7.64739Z" fill="#16F2C7"/>
<path d="M36.325 16.6272C36.267 16.6851 36.267 16.6851 36.325 16.6272C36.267 16.6851 36.267 16.6851 36.325 16.6272Z" fill="#16F2C7"/>
<path d="M38.4683 6.25696C38.5262 6.25696 38.5262 6.31489 38.5841 6.31489C38.5262 6.25696 38.4683 6.25696 38.4683 6.25696Z" fill="#16F2C7"/>
<path d="M38.8162 6.43066C38.8741 6.43066 38.8741 6.4886 38.932 6.4886C38.8741 6.4886 38.8741 6.43066 38.8162 6.43066Z" fill="#16F2C7"/>
<path d="M38.9897 6.54663C39.0477 6.60457 39.1056 6.60457 39.1635 6.6625C39.1056 6.60457 39.0477 6.54663 38.9897 6.54663Z" fill="#16F2C7"/>
<path d="M38.6421 6.31482C38.7 6.31482 38.7 6.37275 38.758 6.37275C38.7 6.37275 38.7 6.31482 38.6421 6.31482Z" fill="#16F2C7"/>
<path d="M30.01 9.03784C30.1838 8.92197 30.3576 8.8061 30.4735 8.74817C30.3576 8.8061 30.1838 8.92197 30.01 9.03784Z" fill="#16F2C7"/>
<path d="M38.2366 6.19897C38.2945 6.19897 38.2945 6.19897 38.3524 6.25691C38.3524 6.19897 38.2945 6.19897 38.2366 6.19897Z" fill="#16F2C7"/>
<path d="M30.9948 11.471C30.763 11.2972 30.5313 11.1234 30.2996 11.0076C30.5313 11.1234 30.763 11.2972 30.9948 11.471Z" fill="#16F2C7"/>
<path d="M29.0831 10.2544C29.0251 10.1965 29.0251 10.0806 29.0251 9.96472C29.0251 10.0806 29.0831 10.1385 29.0831 10.2544Z" fill="#16F2C7"/>
<path d="M39.2215 10.9497C39.1635 11.1814 39.0477 11.4132 38.9897 11.6449C39.0477 11.4132 39.1635 11.1814 39.2215 10.9497Z" fill="#16F2C7"/>
<path d="M39.743 8.6322C39.743 9.03774 39.6271 9.50122 39.5112 10.0226C39.6271 9.50122 39.743 9.03774 39.743 8.6322Z" fill="#16F2C7"/>
<path d="M29.8362 9.09573C29.8941 9.03779 29.9521 9.03779 30.01 8.97986C29.9521 9.03779 29.8941 9.09573 29.8362 9.09573Z" fill="#16F2C7"/>
<path d="M39.5109 10.0227C39.4529 10.3124 39.3371 10.66 39.2212 11.0076C39.3371 10.66 39.4529 10.3124 39.5109 10.0227Z" fill="#16F2C7"/>
<path d="M36.151 16.743H36.093C36.093 16.801 36.093 16.743 36.151 16.743Z" fill="#16F2C7"/>
<path d="M36.2667 16.6852L36.2087 16.7431C36.2087 16.7431 36.2087 16.6852 36.2667 16.6852Z" fill="#16F2C7"/>
<path d="M35.5716 16.6852C35.5716 16.6272 35.5137 16.6272 35.5716 16.6852C35.5137 16.6272 35.5716 16.6272 35.5716 16.6852Z" fill="#16F2C7"/>
<path d="M36.3827 16.5114C36.3827 16.5693 36.3248 16.5693 36.2668 16.6272C36.3248 16.6272 36.3827 16.5693 36.3827 16.5114Z" fill="#16F2C7"/>
<path d="M38.9899 11.6449C38.874 11.8766 38.8161 12.1084 38.7002 12.398C38.7581 12.1663 38.874 11.9346 38.9899 11.6449Z" fill="#16F2C7"/>
<path d="M38.3525 6.19897C38.3525 6.19897 38.4105 6.19897 38.4105 6.25691C38.4105 6.25691 38.4105 6.19897 38.3525 6.19897Z" fill="#16F2C7"/>
<path d="M37.947 6.08313C38.005 6.08313 38.005 6.08313 38.0629 6.08313C38.005 6.14107 37.947 6.08313 37.947 6.08313Z" fill="#16F2C7"/>
<path d="M38.5842 6.31482C38.5842 6.31482 38.6422 6.31482 38.6422 6.37275C38.6422 6.31482 38.5842 6.31482 38.5842 6.31482Z" fill="#16F2C7"/>
<path d="M36.7302 6.14111C36.7882 6.14111 36.7882 6.14111 36.8461 6.14111C36.7882 6.08317 36.7302 6.08317 36.7302 6.14111Z" fill="#16F2C7"/>
<path d="M29.083 10.2544C29.1409 10.3123 29.1989 10.4282 29.3147 10.4282C29.6624 10.602 29.952 10.7758 30.2417 10.9496C29.952 10.7758 29.6044 10.602 29.3147 10.4282C29.2568 10.3703 29.1409 10.3123 29.083 10.2544Z" fill="#16F2C7"/>
<path d="M39.1057 6.66248C39.5692 7.12595 39.743 7.76323 39.743 8.63225C39.8009 7.76323 39.5692 7.12595 39.1057 6.66248Z" fill="#16F2C7"/>
<path d="M38.7581 6.3728C38.7581 6.3728 38.816 6.3728 38.816 6.43074L38.7581 6.3728Z" fill="#16F2C7"/>
<path d="M38.9316 6.48865C38.9316 6.48865 38.9896 6.54658 38.9316 6.48865C38.9896 6.54658 38.9316 6.48865 38.9316 6.48865Z" fill="#16F2C7"/>
<path d="M30.4734 8.74812L30.5313 8.69019C30.5313 8.69019 30.5313 8.69019 30.4734 8.74812Z" fill="#16F2C7"/>
<path d="M32.3274 7.7054C32.3853 7.7054 32.3853 7.64746 32.4433 7.64746C32.3853 7.64746 32.3274 7.7054 32.3274 7.7054Z" fill="#16F2C7"/>
<path d="M32.8486 7.4156C32.9066 7.4156 32.9066 7.35767 32.9645 7.35767C32.9066 7.4156 32.8486 7.4156 32.8486 7.4156Z" fill="#16F2C7"/>
<path d="M31.6899 8.05293C31.7479 8.05293 31.7479 7.995 31.8058 7.995C31.7479 7.995 31.7479 7.99499 31.6899 8.05293Z" fill="#16F2C7"/>
<path d="M31.1106 8.3426C31.1685 8.3426 31.2265 8.28467 31.2265 8.28467C31.2265 8.28467 31.1685 8.3426 31.1106 8.3426Z" fill="#16F2C7"/>
<path d="M33.428 7.18391C33.4859 7.18391 33.4859 7.18391 33.5438 7.12598C33.4859 7.12598 33.4859 7.12598 33.428 7.18391Z" fill="#16F2C7"/>
<path d="M33.8914 6.95222C33.9493 6.95222 33.9493 6.89429 34.0072 6.89429C34.0072 6.89429 33.9493 6.95222 33.8914 6.95222Z" fill="#16F2C7"/>
<path d="M34.9343 6.54658C34.9923 6.54658 34.9923 6.54658 35.0502 6.48865C34.9923 6.54658 34.9923 6.54658 34.9343 6.54658Z" fill="#16F2C7"/>
<path d="M39.1056 6.66247C39.0476 6.60454 38.9897 6.54661 38.9318 6.54661C38.9318 6.54661 38.8738 6.54661 38.8738 6.48867C38.8159 6.48867 38.8159 6.43074 38.758 6.43074C38.758 6.43074 38.7 6.43074 38.7 6.3728C38.6421 6.3728 38.6421 6.31487 38.5842 6.31487C38.5842 6.31487 38.5262 6.31487 38.5262 6.25693C38.4683 6.25693 38.4683 6.199 38.4104 6.199C38.4104 6.199 38.3524 6.199 38.3524 6.14106C38.2945 6.14106 38.2945 6.14106 38.2366 6.08313C38.1786 6.08313 38.1786 6.08313 38.1207 6.08313C38.0628 6.08313 38.0628 6.08313 38.0048 6.08313C37.9469 6.08313 37.9469 6.08313 37.889 6.08313C37.831 6.08313 37.7731 6.08313 37.7731 6.08313C37.7151 6.08313 37.7152 6.08313 37.6572 6.08313C37.5993 6.08313 37.5413 6.08313 37.4834 6.08313C37.4255 6.08313 37.4255 6.08313 37.3675 6.08313C37.2517 6.08313 37.1358 6.08313 37.0779 6.08313H37.0199C36.9041 6.08313 36.8461 6.08313 36.7303 6.08313C36.6723 6.08313 36.6723 6.08313 36.6144 6.08313C36.4985 6.08313 36.3827 6.14106 36.2668 6.14106H36.2089C36.093 6.14106 35.9771 6.199 35.8612 6.199C35.8033 6.199 35.8033 6.199 35.7454 6.199C35.6295 6.25693 35.4557 6.25693 35.3398 6.31487C35.224 6.3728 35.0502 6.3728 34.9343 6.43074C34.8764 6.43074 34.8764 6.43074 34.8184 6.48867C34.7026 6.54661 34.5867 6.60454 34.4129 6.60454H34.355C34.1811 6.66247 34.0653 6.72041 33.8915 6.77834C33.8335 6.77834 33.8335 6.83628 33.7756 6.83628C33.6597 6.89421 33.5439 6.95215 33.3701 7.01008C33.3121 7.01008 33.3121 7.01008 33.2542 7.06802C33.0804 7.12595 32.9645 7.24182 32.7907 7.29975C32.7328 7.29975 32.7328 7.35769 32.6749 7.35769C32.559 7.41562 32.3852 7.47356 32.2693 7.58943C32.2114 7.58943 32.2114 7.64736 32.1534 7.64736C31.9796 7.76323 31.8058 7.82117 31.632 7.93703C31.5741 7.93703 31.5741 7.99497 31.5162 7.99497C31.3424 8.0529 31.2265 8.16877 31.0527 8.22671C30.9948 8.22671 30.9368 8.28464 30.9368 8.28464C30.763 8.40051 30.5892 8.51638 30.4154 8.57431L30.3575 8.63225C30.1837 8.74812 30.0099 8.80605 29.894 8.92192C29.8361 8.97986 29.7781 8.97986 29.7202 9.03779C29.5464 9.15366 29.3147 9.26953 29.1409 9.3854C28.967 9.50127 28.8512 9.67507 28.9091 9.90681C28.9091 10.0227 28.967 10.0806 28.967 10.1965C29.025 10.2544 29.0829 10.3703 29.1988 10.3703C29.5464 10.5441 29.8361 10.7179 30.1257 10.8917C30.3575 11.0655 30.5892 11.1814 30.821 11.3552C31.1686 11.5869 31.5162 11.8766 31.8638 12.1663C32.1534 12.398 32.3852 12.6297 32.6749 12.9194C33.7177 13.9622 34.5867 15.1209 35.2819 16.3955C35.2819 16.4534 35.3398 16.5113 35.3978 16.5113C35.3978 16.5113 35.3978 16.5113 35.4557 16.5693L35.5136 16.6272H35.5716C35.5716 16.6272 35.6295 16.6272 35.6295 16.6851H35.6874H35.7454H35.8033H35.8612H35.9192H35.9771L36.0351 16.6272C36.0351 16.6272 36.0351 16.6272 36.093 16.6272C36.1509 16.5693 36.1509 16.5693 36.2089 16.5113C37.1358 15.005 37.9469 13.6146 38.4683 12.398C38.5842 12.1663 38.7 11.9345 38.758 11.6448C38.8738 11.4131 38.9318 11.1814 38.9897 10.9496C39.1056 10.602 39.2214 10.3123 39.2794 9.96474C39.3953 9.44333 39.4532 8.97986 39.5111 8.57431C39.8008 7.76323 39.5691 7.12595 39.1056 6.66247Z" fill="#16F2C7"/>
<path d="M27.5766 11.5289C27.1711 11.3551 26.7656 11.413 26.418 11.6448C25.2593 12.5717 24.0426 13.4987 22.826 14.4836C20.1031 16.6851 17.6119 18.9445 15.3525 21.0881C11.9343 20.5667 7.82097 21.8992 4.1711 25.2594C3.76556 25.607 3.76556 26.2443 4.1711 26.5919L7.00989 29.3727C7.64717 30.01 8.16858 30.2418 8.8638 29.5465L12.6295 33.2543L16.5112 37.078C15.8159 37.7732 16.0477 38.2946 16.685 38.9319L19.5237 41.7707C19.8714 42.1183 20.5086 42.1183 20.8562 41.7128C24.2744 37.947 25.5489 33.7178 24.9117 30.2997C27.0552 27.9823 29.1988 25.4911 31.4003 22.8261C32.3852 21.6095 33.3122 20.4508 34.1812 19.2921C34.4129 18.9445 34.4709 18.4811 34.2971 18.1334C32.7908 15.2367 30.4154 12.9193 27.5766 11.5289ZM20.3348 27.8085C20.2769 28.214 20.1031 28.5617 19.8134 28.8513C19.6396 29.0251 19.4079 29.1989 19.1761 29.3148C18.9444 29.4307 18.6547 29.4886 18.423 29.4886C18.1333 29.4886 17.9016 29.4307 17.6119 29.3727C17.3222 29.3148 17.1484 29.141 16.9167 28.9672C16.627 28.6775 16.3953 28.3299 16.3373 27.9244C16.2215 27.5188 16.2794 27.1133 16.3953 26.7077C16.5112 26.3022 16.8008 26.0125 17.1484 25.7808C17.496 25.5491 17.8436 25.4332 18.2492 25.3753C18.6547 25.3753 19.0603 25.4911 19.4079 25.6649C19.7555 25.8967 20.0452 26.1863 20.219 26.5919C20.3348 26.9974 20.3928 27.4609 20.3348 27.8085ZM24.8537 23.5793C24.7379 23.9848 24.4482 24.2745 24.1006 24.5062C23.753 24.738 23.4054 24.8538 22.9998 24.9118C22.5943 24.9118 22.1887 24.7959 21.8411 24.6221C21.4935 24.3904 21.2038 24.1007 21.03 23.6952C20.8562 23.3476 20.7983 22.942 20.8562 22.5365C20.9142 22.1309 21.088 21.7833 21.3777 21.4936C21.7253 21.0881 22.2467 20.8564 22.826 20.8564C23.3474 20.8564 23.9268 21.0302 24.2744 21.4357C24.5641 21.7254 24.7958 22.073 24.8537 22.4785C25.0275 22.8261 25.0275 23.2317 24.8537 23.5793ZM29.4885 19.0025C29.3726 19.408 29.0829 19.6977 28.7353 19.9294C28.3877 20.1612 28.0401 20.277 27.6346 20.335C27.229 20.335 26.8235 20.2191 26.4759 20.0453C26.1283 19.8135 25.8386 19.5239 25.6648 19.1183C25.491 18.7707 25.4331 18.3652 25.491 17.9596C25.5489 17.5541 25.7227 17.2065 26.0124 16.9168C26.36 16.5113 26.8814 16.2795 27.4608 16.2795C27.9822 16.2795 28.5615 16.4533 28.9091 16.8589C29.1988 17.1486 29.4306 17.4962 29.4885 17.9017C29.6623 18.1914 29.6044 18.5969 29.4885 19.0025Z" fill="#16F2C7"/>
</svg>
