<svg width="156" height="143" viewBox="0 0 156 143" fill="none" xmlns="http://www.w3.org/2000/svg">
<g clip-path="url(#clip0)">
<path d="M96.6063 81.7404H59.3936C46.9282 81.7404 37.0293 71.6829 37.0293 59.431V22.3095C37.0293 10.0575 47.1116 0 59.3936 0H96.423C108.888 0 118.787 10.0575 118.787 22.3095V59.2481C118.971 71.6829 108.888 81.7404 96.6063 81.7404Z" fill="#5B3D80"/>
<path d="M55.7273 62.9053L53.1609 60.3452C52.2443 59.4309 50.5945 59.6137 49.8613 60.7109C45.6451 67.1112 46.0117 69.4884 47.6615 71.1342C49.3113 72.5971 51.6944 72.9628 58.1104 68.7569C59.2103 68.0255 59.3936 66.3797 58.477 65.4654L55.7273 62.9053Z" fill="#16F2C7"/>
<path d="M100.456 10.2404C100.639 10.2404 101.006 10.0576 101.189 10.0576C101.006 10.0576 100.639 10.0576 100.456 10.2404Z" fill="#16F2C7"/>
<path d="M98.6227 10.9719C98.9893 10.789 99.1726 10.789 99.5393 10.6061C99.1726 10.6061 98.806 10.789 98.6227 10.9719Z" fill="#16F2C7"/>
<path d="M101.556 29.2583C101.556 29.0754 101.372 29.0754 101.556 29.2583C101.372 29.0754 101.556 29.0754 101.556 29.2583Z" fill="#16F2C7"/>
<path d="M99.5393 10.4232C99.7226 10.2404 100.089 10.2404 100.273 10.2404C99.9059 10.4232 99.7226 10.4232 99.5393 10.4232Z" fill="#16F2C7"/>
<path d="M101.189 9.87464C101.373 9.87464 101.739 9.69177 101.922 9.69177C101.739 9.87464 101.556 9.87464 101.189 9.87464Z" fill="#16F2C7"/>
<path d="M102.839 9.50891C103.022 9.50891 103.206 9.50891 103.572 9.32605C103.389 9.50891 103.022 9.50891 102.839 9.50891Z" fill="#16F2C7"/>
<path d="M102.106 9.69178C102.289 9.69178 102.472 9.50891 102.656 9.50891C102.656 9.50891 102.289 9.69178 102.106 9.69178Z" fill="#16F2C7"/>
<path d="M97.5228 11.3376C97.7061 11.1547 98.0728 11.1547 98.2561 10.9719C98.0728 11.1547 97.8895 11.1547 97.5228 11.3376Z" fill="#16F2C7"/>
<path d="M93.3068 13.5319C93.6734 13.3491 93.8567 13.1662 94.04 12.9833C93.8567 13.1662 93.6734 13.3491 93.3068 13.5319Z" fill="#16F2C7"/>
<path d="M89.6405 15.7263C90.0071 15.5434 90.3738 15.1777 90.7404 14.9948C90.3738 15.1777 90.0071 15.5434 89.6405 15.7263Z" fill="#16F2C7"/>
<path d="M94.4066 12.9833C94.7732 12.8005 94.9566 12.6176 95.3232 12.4348C94.9566 12.6176 94.7732 12.8005 94.4066 12.9833Z" fill="#16F2C7"/>
<path d="M92.0234 14.2634C92.3901 14.0806 92.7567 13.8977 93.1233 13.7148C92.7567 13.7148 92.3901 14.0806 92.0234 14.2634Z" fill="#16F2C7"/>
<path d="M101.373 29.0754L101.189 28.8926C101.189 28.8926 101.189 28.8926 101.373 29.0754Z" fill="#16F2C7"/>
<path d="M96.6063 11.7033C96.9729 11.5204 97.1563 11.3375 97.5229 11.3375C97.1563 11.5204 96.7896 11.7033 96.6063 11.7033Z" fill="#16F2C7"/>
<path d="M94.7732 20.8465C94.2232 20.2979 93.49 19.7493 92.7567 19.3836C93.49 19.9322 94.2232 20.2979 94.7732 20.8465Z" fill="#16F2C7"/>
<path d="M95.5065 12.2519C95.6898 12.069 96.0564 12.069 96.2397 11.8862C96.0564 12.069 95.8731 12.069 95.5065 12.2519Z" fill="#16F2C7"/>
<path d="M107.422 10.0576L107.605 10.2404C107.605 10.0576 107.605 10.0576 107.422 10.0576Z" fill="#16F2C7"/>
<path d="M107.788 10.2404C107.972 10.2404 107.972 10.4232 107.972 10.4232C107.972 10.4232 107.972 10.2404 107.788 10.2404Z" fill="#16F2C7"/>
<path d="M107.239 9.87463C107.239 9.87463 107.422 9.87463 107.422 10.0575C107.239 9.87463 107.239 9.87463 107.239 9.87463Z" fill="#16F2C7"/>
<path d="M91.1069 14.812C91.2902 14.6292 91.6569 14.4463 92.0235 14.2634C91.6569 14.4463 91.2902 14.6292 91.1069 14.812Z" fill="#16F2C7"/>
<path d="M92.9401 19.3836C92.5734 19.0179 92.0235 18.835 91.6569 18.4693C92.0235 18.835 92.3901 19.0179 92.9401 19.3836Z" fill="#16F2C7"/>
<path d="M89.2738 17.1892C89.0905 17.0064 89.0905 16.8235 89.0905 16.6406C89.2738 16.8235 89.2738 17.0064 89.2738 17.1892Z" fill="#16F2C7"/>
<path d="M108.338 18.4693C108.155 18.835 107.972 19.3836 107.788 19.7493C107.972 19.3836 108.155 18.835 108.338 18.4693Z" fill="#16F2C7"/>
<path d="M109.255 14.0805C109.255 14.812 109.072 15.7263 108.888 16.6406C109.072 15.7263 109.255 14.812 109.255 14.0805Z" fill="#16F2C7"/>
<path d="M90.7404 14.9949C90.9237 14.9949 90.9237 14.812 91.107 14.812C90.9237 14.9949 90.9237 14.9949 90.7404 14.9949Z" fill="#16F2C7"/>
<path d="M108.888 16.6406C108.705 17.1892 108.522 17.7378 108.338 18.4693C108.522 17.9207 108.705 17.1892 108.888 16.6406Z" fill="#16F2C7"/>
<path d="M103.022 28.8926L102.839 29.0754C102.839 29.0754 102.839 28.8926 103.022 28.8926Z" fill="#16F2C7"/>
<path d="M107.788 19.7493C107.605 20.1151 107.422 20.6636 107.239 21.0294C107.422 20.6636 107.605 20.2979 107.788 19.7493Z" fill="#16F2C7"/>
<path d="M105.772 9.32605C105.955 9.50891 105.955 9.50891 105.772 9.32605C105.955 9.50891 105.955 9.50891 105.772 9.32605Z" fill="#16F2C7"/>
<path d="M89.2738 17.1892C89.4571 17.3721 89.4571 17.5549 89.6404 17.5549C90.1904 17.9207 90.9236 18.2864 91.4736 18.6521C90.9236 18.2864 90.3737 17.9207 89.6404 17.5549C89.6404 17.3721 89.4571 17.1892 89.2738 17.1892Z" fill="#16F2C7"/>
<path d="M108.155 10.4232C109.072 11.1547 109.438 12.4347 109.255 14.0805C109.255 12.4347 108.888 11.3375 108.155 10.4232Z" fill="#16F2C7"/>
<path d="M107.605 10.0576C107.788 10.2404 107.788 10.2404 107.605 10.0576C107.788 10.2404 107.788 10.2404 107.605 10.0576Z" fill="#16F2C7"/>
<path d="M95.3231 12.4347C95.3231 12.4347 95.5064 12.4347 95.5064 12.2518L95.3231 12.4347Z" fill="#16F2C7"/>
<path d="M96.2397 11.8861C96.2397 11.8861 96.4231 11.8861 96.4231 11.7032C96.4231 11.8861 96.4231 11.8861 96.2397 11.8861Z" fill="#16F2C7"/>
<path d="M94.2233 12.9833C94.2233 12.9833 94.4066 12.9833 94.4066 12.8005C94.2233 12.9833 94.2233 12.9833 94.2233 12.9833Z" fill="#16F2C7"/>
<path d="M93.1233 13.5319L93.3066 13.3491C93.3066 13.5319 93.1233 13.5319 93.1233 13.5319Z" fill="#16F2C7"/>
<path d="M98.2561 10.9718C98.2561 10.9718 98.4394 10.9718 98.4394 10.7889C98.4394 10.9718 98.4394 10.9718 98.2561 10.9718Z" fill="#16F2C7"/>
<path d="M108.155 10.4232C108.155 10.4232 107.972 10.2404 107.788 10.2404C107.788 10.2404 107.788 10.2404 107.605 10.2404L107.422 10.0575C107.422 10.0575 107.422 10.0575 107.239 10.0575C107.239 10.0575 107.055 10.0575 107.055 9.87463H106.872H106.689H106.505H106.322H106.139H105.955H105.772H105.589H105.405H105.222H105.039C104.855 9.87463 104.672 9.87463 104.489 9.87463C104.489 9.87463 104.489 9.87463 104.305 9.87463C104.122 9.87463 103.939 9.87463 103.756 9.87463H103.572C103.389 9.87463 103.206 9.87463 102.839 10.0575C102.839 10.0575 102.839 10.0575 102.656 10.0575C102.472 10.0575 102.289 10.0575 102.106 10.2404H101.922C101.739 10.2404 101.372 10.4232 101.189 10.4232C101.006 10.4232 100.639 10.6061 100.456 10.6061H100.273C100.089 10.6061 99.7227 10.789 99.5393 10.789C99.5393 10.789 99.5393 10.789 99.356 10.789C99.1727 10.9718 98.8061 10.9718 98.4395 11.1547C98.4395 11.1547 98.2561 11.1547 98.2561 11.3375C98.0728 11.5204 97.7062 11.5204 97.5229 11.7033H97.3396C96.9729 11.8861 96.7896 11.8861 96.423 12.069C96.423 12.069 96.2397 12.069 96.2397 12.2519C96.0564 12.4347 95.6897 12.4347 95.5064 12.6176C95.5064 12.6176 95.3231 12.6176 95.3231 12.8005C94.9565 12.9833 94.7732 13.1662 94.4066 13.3491C94.4066 13.3491 94.2232 13.3491 94.2232 13.5319C94.0399 13.7148 93.6733 13.8977 93.49 14.0805L93.3067 14.2634C92.94 14.4462 92.5734 14.6291 92.2068 14.812H92.0235C91.6569 14.4462 91.2902 14.6291 91.1069 14.812C90.9236 14.812 90.9236 14.9948 90.7403 14.9948C90.3737 15.1777 90.007 15.3606 89.6404 15.7263C89.2738 15.9092 89.0905 16.2749 89.0905 16.6406C89.0905 16.8235 89.0905 17.0063 89.2738 17.1892C89.4571 17.3721 89.4571 17.5549 89.6404 17.5549C90.1903 17.9207 90.9236 18.2864 91.4735 18.6521C91.8402 19.0179 92.3901 19.2007 92.7567 19.5664C93.49 20.115 94.0399 20.4808 94.7732 21.0294C95.3231 21.3951 95.8731 21.9437 96.2397 22.4923C98.2561 24.3209 99.906 26.5153 101.189 28.8925L101.372 29.0754C101.372 29.0754 101.372 29.0754 101.556 29.2583C101.556 29.2583 101.556 29.2583 101.739 29.2583H101.922C101.922 29.2583 101.922 29.2583 102.106 29.2583H102.289H102.472C102.472 29.2583 102.472 29.2583 102.656 29.2583H102.839C102.839 29.2583 102.839 29.2583 103.022 29.2583C103.022 29.2583 103.206 29.2583 103.206 29.0754L103.389 28.8925C105.222 26.1496 106.689 23.5895 107.605 21.2122C107.788 20.6636 107.972 20.2979 108.155 19.9322C108.338 19.5664 108.522 19.0179 108.705 18.6521C108.888 18.1035 109.072 17.3721 109.255 16.8235C109.438 15.9092 109.622 14.9948 109.622 14.2634C109.255 12.4347 108.888 11.3375 108.155 10.4232Z" fill="#16F2C7"/>
<path d="M86.5241 19.3836C85.7908 19.0179 84.8743 19.2008 84.3243 19.5665C82.1245 21.2123 79.9248 23.0409 77.725 24.8696C72.7755 29.0754 68.0094 33.0984 63.7932 37.1215C57.3772 36.2071 49.678 38.5844 42.8954 44.9846C42.1621 45.7161 42.1621 46.8133 42.8954 47.5447L48.2115 52.8478C49.4947 53.945 50.4113 54.4936 51.6945 53.2135L58.6604 60.1624L65.9929 67.2941C64.7097 68.5742 65.0764 69.4885 66.3596 70.7685L71.6757 76.0716C72.4089 76.803 73.5088 76.803 74.2421 76.0716C80.658 68.9399 83.0411 61.2596 81.7579 54.6765C85.7908 50.2877 89.8237 45.7161 93.8566 40.7788C95.6898 38.5844 97.3396 36.39 98.9894 34.1956C99.5394 33.647 99.5394 32.7327 99.1727 32.0013C96.2397 26.5153 91.8402 22.1266 86.5241 19.3836ZM72.9589 49.922C72.7755 50.6534 72.4089 51.3849 72.0423 51.9335C71.6757 52.2992 71.309 52.6649 70.7591 52.8478C70.3925 53.0307 69.8425 53.0307 69.2926 53.0307C68.7426 53.0307 68.376 53.0307 67.8261 52.8478C67.2761 52.6649 66.9095 52.4821 66.5429 52.1164C65.9929 51.5678 65.6263 51.0192 65.443 50.1048C65.2597 49.3734 65.2597 48.6419 65.6263 47.9105C65.8096 47.179 66.3596 46.6304 66.9095 46.0818C67.4594 45.7161 68.1927 45.3504 69.1093 45.3504C69.8425 45.3504 70.5758 45.5332 71.309 45.899C72.0423 46.2647 72.4089 46.8133 72.7755 47.5447C72.9589 48.4591 73.1422 49.1905 72.9589 49.922ZM81.3913 42.0588C81.208 42.7903 80.658 43.3389 80.1081 43.8875C79.5582 44.2532 78.8249 44.6189 77.9083 44.6189C77.1751 44.6189 76.4418 44.436 75.7086 44.0703C74.9753 43.7046 74.6087 43.156 74.2421 42.4245C73.8754 41.6931 73.8754 40.9616 73.8754 40.2302C74.0587 39.4987 74.4254 38.7672 74.792 38.2187C75.5252 37.4872 76.4418 37.1215 77.5417 36.9386C78.6416 36.9386 79.5582 37.3043 80.2914 38.0358C80.8414 38.5844 81.208 39.133 81.3913 40.0473C81.7579 40.5959 81.7579 41.3274 81.3913 42.0588ZM90.007 33.4642C89.8237 34.1956 89.2738 34.7442 88.7238 35.2928C88.1739 35.6586 87.4406 36.0243 86.5241 36.0243C85.7908 36.0243 85.0576 35.8414 84.3243 35.4757C83.5911 35.11 83.2244 34.5614 82.8578 33.8299C82.4912 33.0985 82.4912 32.367 82.4912 31.6355C82.6745 30.9041 83.0411 30.1726 83.4077 29.624C84.141 28.8926 85.0576 28.5268 86.1575 28.344C87.2573 28.344 88.1739 28.7097 88.9072 29.4412C89.4571 29.9898 89.8237 30.7212 90.007 31.4527C90.3737 32.0013 90.3737 32.7327 90.007 33.4642Z" fill="#16F2C7"/>
<path d="M7.88249 110.999L8.06581 114.656C10.2656 111.913 13.3819 110.45 17.0482 110.45C20.3478 110.45 22.9142 111.364 24.564 113.376C26.2139 115.387 26.9471 118.313 27.1304 122.153V142.451H18.698V122.336C18.698 120.508 18.3314 119.228 17.5981 118.496C16.8649 117.765 15.5817 117.216 13.7485 117.216C11.3655 117.216 9.53232 118.13 8.43243 120.142V142.269H0V110.999H7.88249Z" fill="#5B3D80"/>
<path d="M44.7285 136.6C46.0117 136.6 47.1116 136.417 48.2115 135.868C49.3114 135.32 50.0446 134.588 50.5946 133.674V128.371H47.4782C43.262 128.371 41.0622 129.834 40.6956 132.76V133.308C40.6956 134.405 41.0622 135.137 41.7955 135.868C42.5288 136.234 43.4453 136.6 44.7285 136.6ZM51.6944 142.451C51.3278 141.72 50.9612 140.806 50.7779 139.708C48.7614 141.903 46.0117 143.183 42.8954 143.183C39.779 143.183 37.2127 142.269 35.1962 140.44C33.1798 138.611 32.2632 136.417 32.2632 133.674C32.2632 130.382 33.5464 127.822 35.9295 125.994C38.4959 124.165 41.9788 123.251 46.5617 123.251H50.4112V121.422C50.4112 119.959 50.0446 118.862 49.3114 117.948C48.5781 117.033 47.4782 116.668 45.8284 116.668C44.3619 116.668 43.262 117.033 42.5288 117.765C41.7955 118.496 41.4289 119.41 41.4289 120.508H32.9964C32.9964 118.679 33.5464 117.033 34.6463 115.387C35.7461 113.925 37.396 112.645 39.4124 111.73C41.4289 110.816 43.8119 110.45 46.3783 110.45C50.2279 110.45 53.3443 111.364 55.544 113.376C57.7438 115.387 59.027 117.948 59.027 121.605V135.137C59.027 138.063 59.3936 140.44 60.3102 141.903V142.451H51.6944Z" fill="#5B3D80"/>
<path d="M76.8085 132.211L82.4913 110.999H91.2903L80.6581 142.451H72.7756L62.1434 110.999H70.9425L76.8085 132.211Z" fill="#5B3D80"/>
<path d="M114.938 126.359C114.938 123.251 114.388 120.873 113.471 119.41C112.555 117.948 110.905 117.216 108.888 117.216C106.139 117.216 104.306 118.313 103.389 120.508V132.942C104.489 135.137 106.322 136.234 108.888 136.234C111.638 136.234 113.471 134.954 114.205 132.211C114.754 130.931 114.938 128.919 114.938 126.359ZM123.37 126.908C123.37 131.845 122.27 135.868 120.071 138.611C117.871 141.354 114.938 142.817 111.088 142.817C107.605 142.817 105.039 141.537 102.839 138.977L102.656 142.451H95.1399V97.8325H103.572V113.742C105.589 111.547 107.972 110.267 111.272 110.267C115.121 110.267 118.054 111.73 120.254 114.473C122.454 117.216 123.554 121.239 123.554 126.359V126.908H123.37Z" fill="#5B3D80"/>
<path d="M142.068 117.216C140.418 117.216 139.135 117.765 138.035 118.862C136.935 119.959 136.385 121.605 136.019 123.616H147.751V122.885C147.751 121.056 147.201 119.593 146.284 118.679C145.185 117.765 143.901 117.216 142.068 117.216ZM142.985 143C138.402 143 134.552 141.537 131.803 138.794C128.87 136.051 127.403 132.211 127.403 127.457V126.725C127.403 123.616 127.953 120.691 129.236 118.313C130.519 115.753 132.169 113.925 134.369 112.645C136.569 111.364 139.135 110.633 142.068 110.633C146.284 110.633 149.767 111.913 152.15 114.656C154.717 117.399 155.817 121.239 155.817 126.176V129.651H136.019C136.202 131.662 137.119 133.308 138.402 134.588C139.868 135.868 141.518 136.417 143.535 136.417C146.834 136.417 149.217 135.32 151.051 132.942L155.267 137.514C153.984 139.343 152.334 140.623 150.134 141.72C148.118 142.451 145.734 143 142.985 143Z" fill="#5B3D80"/>
</g>
<defs>
<clipPath id="clip0">
<rect width="156" height="143" fill="white"/>
</clipPath>
</defs>
</svg>
