<svg width="23" height="23" viewBox="0 0 23 23" fill="none" xmlns="http://www.w3.org/2000/svg">
<path d="M12.24 18.8L19.84 9.7C20.14 9.4 20.14 9 19.94 8.6L17.24 3.2C17.04 2.9 16.74 2.7 16.34 2.7H6.54C6.14 2.7 5.84 2.9 5.64 3.2L3.04 8.6C2.84 9 2.94 9.4 3.14 9.7L10.74 18.8C11.14 19.3 11.84 19.3 12.24 18.8ZM5.74 0H17.24C18.04 0 18.84 0.5 19.24 1.2L22.74 8.2C23.14 9 23.04 9.9 22.44 10.6L13.14 21.8C12.24 22.9 10.74 22.9 9.74 21.8L0.540002 10.6C-0.059998 9.9 -0.160001 9 0.239999 8.2L3.74 1.2C4.14 0.5 4.84 0 5.74 0Z" fill="white"/>
</svg>
