<svg width="40" height="40" viewBox="0 0 40 40" fill="none" xmlns="http://www.w3.org/2000/svg">
<path d="M34.1423 5.85774C30.2929 2.00837 25.272 0 19.9163 0C14.5607 0 9.53975 2.00837 5.85774 5.85774C2.00837 9.53975 0 14.5607 0 19.9163V33.4728C0 35.1464 0.669456 36.8201 1.841 37.9916C3.01255 39.1632 4.68619 39.8326 6.35983 39.8326H8.3682C10.0418 39.8326 11.7155 39.1632 12.887 37.9916C14.0586 36.8201 14.728 35.3138 14.728 33.4728V27.6151C14.728 25.9414 14.0586 24.2678 12.887 23.0962C11.7155 22.0921 10.0418 21.2552 8.3682 21.2552H5.02092V19.9163C5.02092 15.8996 6.5272 12.2176 9.37238 9.37239C12.2176 6.5272 15.8996 5.02092 19.9163 5.02092C23.9331 5.02092 27.6151 6.5272 30.4602 9.37239C33.3054 12.2176 34.8117 15.8996 34.8117 19.9163V21.2552H31.4644C29.7908 21.2552 28.1172 21.9247 26.9456 23.0962C25.7741 24.2678 25.1046 25.9414 25.1046 27.6151V33.4728C25.1046 35.1464 25.7741 36.8201 26.9456 37.9916C28.1172 39.1632 29.7908 39.8326 31.4644 39.8326H33.4728C35.1464 39.8326 36.8201 39.1632 37.9916 37.9916C39.1632 36.8201 39.8326 35.1464 39.8326 33.4728V19.9163C40 14.5607 37.8243 9.53975 34.1423 5.85774ZM34.9791 26.2761V33.4728C34.9791 33.8075 34.8117 34.1423 34.6443 34.477C34.3096 34.8117 33.9749 34.8117 33.6402 34.8117H31.6318C31.2971 34.8117 30.9623 34.6444 30.6276 34.477C30.2929 34.1423 30.2929 33.8075 30.2929 33.4728V27.6151C30.2929 27.2803 30.4602 26.9456 30.6276 26.6109C30.9623 26.2761 31.2971 26.2761 31.6318 26.2761H34.9791ZM5.02092 33.4728V26.2761H8.3682C8.70293 26.2761 9.03766 26.4435 9.37238 26.6109C9.70711 26.9456 9.70711 27.2803 9.70711 27.6151V33.4728C9.70711 33.8075 9.53975 34.1423 9.37238 34.477C9.03766 34.8117 8.70293 34.8117 8.3682 34.8117H6.35983C6.0251 34.8117 5.69038 34.6444 5.35565 34.477C5.18828 34.3096 5.02092 33.9749 5.02092 33.4728Z" fill="#5B3D80"/>
</svg>
