<svg width="46" height="50" viewBox="0 0 46 50" fill="none" xmlns="http://www.w3.org/2000/svg">
<path d="M43.6804 1.44427C42.7704 0.541602 41.4964 0 40.0404 0H5.09605C3.64003 0 2.36602 0.541602 1.45601 1.44427C0.546005 2.34694 0 3.61068 0 5.05495V24.9137C0 26.1774 0.546005 27.4411 1.45601 28.5244C2.36602 29.427 3.64003 29.9686 5.09605 29.9686H40.2224C41.4964 29.9686 42.7704 29.427 43.8624 28.5244C44.7724 27.6217 45.3184 26.3579 45.3184 24.9137V5.05495C45.1364 3.61068 44.5904 2.34694 43.6804 1.44427ZM40.2224 24.9137H5.09605V5.05495H40.2224V24.9137Z" fill="#5B3D80"/>
<path d="M38.1877 46.7621C36.3707 46.7621 34.372 46.7621 32.5549 46.7621C31.8281 46.7621 31.8281 46.7621 31.8281 46.0426C31.8281 44.4237 32.1915 43.1646 33.2818 41.9054C34.0086 41.1859 34.9171 40.6462 35.8256 40.2865C38.1877 39.3871 40.3682 39.7468 42.3669 41.1859C44.0022 42.445 44.5473 44.2438 44.5473 46.2225C44.5473 46.5823 44.3656 46.7621 44.0022 46.7621C43.4571 46.7621 42.7303 46.7621 42.1852 46.7621C40.9133 46.7621 39.4597 46.7621 38.1877 46.7621Z" fill="#5B3D80"/>
<path d="M22.7431 49.8201C20.9261 49.8201 18.9274 49.8201 17.1104 49.8201C16.3835 49.8201 16.3835 49.8201 16.3835 49.1006C16.3835 45.3231 18.9274 43.1646 22.5614 42.9847C24.1968 42.8048 25.6504 43.3445 26.9223 44.4237C28.5576 45.6829 29.1028 47.4817 29.1028 49.4604C29.1028 49.8201 28.7393 50 28.5576 50C27.4674 50 26.1955 50 25.1053 50C24.1968 49.8201 23.47 49.8201 22.7431 49.8201Z" fill="#5B3D80"/>
<path d="M0.938721 45.6829C0.938721 42.2652 3.30086 40.2865 6.38981 39.7468C8.38854 39.3871 10.3873 39.9267 11.8409 41.3658C12.7494 42.2652 13.2945 43.3444 13.4762 44.6036C13.4762 44.9633 13.4762 45.503 13.6579 45.8627C13.6579 46.2225 13.4762 46.4024 13.1128 46.5823C12.5677 46.5823 12.2043 46.5823 11.6592 46.5823C8.75195 46.5823 5.663 46.5823 2.75575 46.5823C2.39234 46.5823 2.21064 46.5823 1.84724 46.5823C1.12042 46.7621 0.938721 46.5823 0.938721 45.6829Z" fill="#5B3D80"/>
<path d="M26.0138 39.0274C26.0138 40.8262 24.5602 42.2652 22.9249 42.2652C21.1079 42.2652 19.8359 40.8262 19.8359 39.0274C19.8359 37.2286 21.2896 35.7896 23.1066 35.7896C24.5602 35.9694 26.0138 37.2286 26.0138 39.0274Z" fill="#5B3D80"/>
<path d="M41.2768 35.9693C41.2768 37.7681 39.8231 39.2072 38.1878 39.2072C36.3708 39.2072 34.9172 37.7681 35.0989 35.9693C35.0989 34.1705 36.5525 32.9114 38.1878 32.9114C40.0048 32.9114 41.2768 34.3504 41.2768 35.9693Z" fill="#5B3D80"/>
<path d="M10.5688 35.9693C10.5688 37.7681 9.11521 39.2072 7.29818 39.2072C5.48115 39.2072 4.20923 37.7681 4.20923 35.9693C4.20923 34.1705 5.66285 32.9114 7.47988 32.9114C9.29691 32.9114 10.5688 34.1705 10.5688 35.9693Z" fill="#5B3D80"/>
</svg>
