<svg width="40" height="41" viewBox="0 0 40 41" fill="none" xmlns="http://www.w3.org/2000/svg">
<path d="M20 0C8.92562 0 0 8.95746 0 20.0714C0 31.1852 8.92562 40.1427 20 40.1427C31.0744 40.1427 40 31.1852 40 20.0714C40 8.95746 31.0744 0 20 0ZM20 35.664C11.5702 35.664 4.6281 28.6971 4.6281 20.2372C4.6281 11.7774 11.5702 4.81049 20 4.81049C28.4297 4.81049 35.3719 11.7774 35.3719 20.2372C35.3719 28.6971 28.4297 35.664 20 35.664Z" fill="#5B3D80"/>
<path d="M16.6942 29.0288L28.4297 21.0666C29.0909 20.569 29.0909 19.5737 28.4297 19.0761L16.6942 11.1139C15.8677 10.6162 14.876 11.1139 14.876 12.1091V27.8676C14.876 29.0288 16.033 29.5264 16.6942 29.0288Z" fill="#5B3D80"/>
</svg>
